<svg width="88" height="88" viewBox="0 0 88 88" fill="none" xmlns="http://www.w3.org/2000/svg">
<mask id="mask0_2035_2361" style="mask-type:luminance" maskUnits="userSpaceOnUse" x="0" y="0" width="88" height="88">
<path d="M43.9997 85.6673C49.4725 85.6744 54.8927 84.5999 59.9489 82.5055C65.0051 80.4111 69.5975 77.3381 73.4622 73.4632C77.3371 69.5984 80.4101 65.006 82.5045 59.9499C84.5989 54.8937 85.6735 49.4735 85.6664 44.0007C85.6733 38.5279 84.5988 33.1077 82.5044 28.0516C80.41 22.9954 77.3371 18.403 73.4622 14.5382C69.5975 10.6632 65.0051 7.59027 59.9489 5.49586C54.8927 3.40146 49.4725 2.32693 43.9997 2.33402C38.5269 2.32704 33.1068 3.40163 28.0506 5.49602C22.9944 7.59042 18.402 10.6633 14.5372 14.5382C10.6624 18.403 7.58944 22.9954 5.49505 28.0516C3.40065 33.1077 2.32607 38.5279 2.33304 44.0007C2.32595 49.4735 3.40049 54.8937 5.49489 59.9499C7.58929 65.006 10.6623 69.5984 14.5372 73.4632C18.402 77.338 22.9944 80.4109 28.0506 82.5053C33.1068 84.5997 38.5269 85.6743 43.9997 85.6673Z" fill="white" stroke="white" stroke-width="4" stroke-linejoin="round"/>
<path d="M27.333 44L39.833 56.5L64.833 31.5" stroke="black" stroke-width="4" stroke-linecap="round" stroke-linejoin="round"/>
</mask>
<g mask="url(#mask0_2035_2361)">
<path d="M-6 -6H94V94H-6V-6Z" fill="#6F00B6"/>
</g>
</svg>
