<svg width="51" height="50" viewBox="0 0 51 50" fill="none" xmlns="http://www.w3.org/2000/svg">
<path d="M42.167 16.6673L25.5003 27.084L8.83366 16.6673V12.5007L25.5003 22.9173L42.167 12.5007M42.167 8.33398H8.83366C6.52116 8.33398 4.66699 10.1882 4.66699 12.5007V37.5007C4.66699 38.6057 5.10598 39.6655 5.88738 40.4469C6.66878 41.2283 7.72859 41.6673 8.83366 41.6673H42.167C43.2721 41.6673 44.3319 41.2283 45.1133 40.4469C45.8947 39.6655 46.3337 38.6057 46.3337 37.5007V12.5007C46.3337 11.3956 45.8947 10.3358 45.1133 9.55437C44.3319 8.77297 43.2721 8.33398 42.167 8.33398Z" fill="#6F00B6"/>
</svg>
