<svg width="24" height="24" viewBox="0 0 24 24" fill="none" xmlns="http://www.w3.org/2000/svg">
<path d="M12 15C12.7956 15 13.5587 14.6839 14.1213 14.1213C14.6839 13.5587 15 12.7956 15 12C15 11.2044 14.6839 10.4413 14.1213 9.87868C13.5587 9.31607 12.7956 9 12 9C11.2044 9 10.4413 9.31607 9.87868 9.87868C9.31607 10.4413 9 11.2044 9 12C9 12.7956 9.31607 13.5587 9.87868 14.1213C10.4413 14.6839 11.2044 15 12 15Z" fill="#232323"/>
<path fill-rule="evenodd" clip-rule="evenodd" d="M0.796268 12.7076C0.619994 12.2496 0.619994 11.7424 0.796268 11.2844C1.66894 9.0218 3.20641 7.07654 5.20622 5.70478C7.20603 4.33302 9.5744 3.59908 11.9995 3.59961C17.1079 3.59961 21.4711 6.79161 23.2027 11.2916C23.3791 11.7488 23.3779 12.2564 23.2027 12.7148C22.33 14.9774 20.7925 16.9227 18.7927 18.2944C16.7929 19.6662 14.4245 20.4001 11.9995 20.3996C6.89107 20.3996 2.52787 17.2076 0.796268 12.7076ZM16.7995 11.9996C16.7995 13.2726 16.2938 14.4935 15.3936 15.3937C14.4934 16.2939 13.2725 16.7996 11.9995 16.7996C10.7264 16.7996 9.50553 16.2939 8.60536 15.3937C7.70518 14.4935 7.19947 13.2726 7.19947 11.9996C7.19947 10.7266 7.70518 9.50567 8.60536 8.6055C9.50553 7.70532 10.7264 7.19961 11.9995 7.19961C13.2725 7.19961 14.4934 7.70532 15.3936 8.6055C16.2938 9.50567 16.7995 10.7266 16.7995 11.9996Z" fill="#232323"/>
</svg>
