<svg width="40" height="40" viewBox="0 0 40 40" fill="none" xmlns="http://www.w3.org/2000/svg">
<path d="M20.4659 18.1214C19.2162 18.1082 17.9983 17.7256 16.9656 17.0218C15.9329 16.3179 15.1315 15.3243 14.6624 14.1659C14.1932 13.0075 14.0773 11.7363 14.3292 10.5121C14.581 9.28801 15.1894 8.16576 16.0777 7.28669C16.966 6.40761 18.0946 5.81101 19.3213 5.57199C20.548 5.33297 21.818 5.46222 22.9714 5.94347C24.1248 6.42473 25.11 7.23646 25.803 8.27648C26.496 9.3165 26.8658 10.5383 26.8659 11.7881C26.8541 13.4757 26.174 15.0899 24.9744 16.277C23.7748 17.4641 22.1536 18.1273 20.4659 18.1214ZM20.4659 7.67695C19.6558 7.69009 18.8676 7.94233 18.2003 8.40197C17.5331 8.86162 17.0165 9.50819 16.7156 10.2605C16.4146 11.0127 16.3427 11.8372 16.5087 12.6302C16.6748 13.4232 17.0715 14.1495 17.649 14.7178C18.2265 15.2861 18.9591 15.6711 19.7547 15.8244C20.5503 15.9777 21.3735 15.8925 22.1208 15.5794C22.8682 15.2664 23.5063 14.7395 23.9552 14.065C24.404 13.3904 24.6436 12.5983 24.6437 11.7881C24.6319 10.6898 24.1859 9.64085 23.403 8.87049C22.6202 8.10013 21.5642 7.67102 20.4659 7.67695Z" fill="#111111"/>
<path d="M20.4654 18.1214C19.2157 18.1082 17.9978 17.7256 16.9651 17.0218C15.9324 16.3179 15.131 15.3243 14.6619 14.1659C14.1927 13.0075 14.0768 11.7363 14.3286 10.5121C14.5805 9.28801 15.1889 8.16576 16.0772 7.28669C16.9655 6.40761 18.0941 5.81101 19.3208 5.57199C20.5475 5.33297 21.8175 5.46222 22.9708 5.94347C24.1242 6.42473 25.1094 7.23646 25.8025 8.27648C26.4955 9.3165 26.8653 10.5383 26.8654 11.7881C26.8536 13.4757 26.1734 15.0899 24.9738 16.277C23.7742 17.4641 22.153 18.1273 20.4654 18.1214ZM20.4654 7.67695C19.6552 7.69009 18.867 7.94233 18.1998 8.40197C17.5326 8.86162 17.016 9.50819 16.7151 10.2605C16.4141 11.0127 16.3421 11.8372 16.5082 12.6302C16.6743 13.4232 17.071 14.1495 17.6485 14.7178C18.226 15.2861 18.9586 15.6711 19.7542 15.8244C20.5498 15.9777 21.373 15.8925 22.1203 15.5794C22.8676 15.2664 23.5058 14.7395 23.9547 14.065C24.4035 13.3904 24.643 12.5983 24.6431 11.7881C24.6314 10.6898 24.1854 9.64085 23.4025 8.87049C22.6197 8.10013 21.5637 7.67102 20.4654 7.67695ZM24.3431 19.6103C19.4149 18.7527 14.3413 19.5333 9.8987 21.8325C9.58333 22.0076 9.3222 22.2661 9.14387 22.5796C8.96554 22.8932 8.87688 23.2497 8.88759 23.6103V27.5658C8.88759 27.8605 9.00465 28.1431 9.21302 28.3515C9.4214 28.5599 9.70401 28.677 9.9987 28.677C10.2934 28.677 10.576 28.5599 10.7844 28.3515C10.9927 28.1431 11.1098 27.8605 11.1098 27.5658V23.7547C15.2294 21.6877 19.9142 21.0318 24.4431 21.8881L24.3431 19.6103Z" fill="#111111"/>
<path d="M36.6623 24.4431H29.2179V22.7986C29.2179 22.5039 29.1008 22.2213 28.8924 22.0129C28.6841 21.8046 28.4015 21.6875 28.1068 21.6875C27.8121 21.6875 27.5295 21.8046 27.3211 22.0129C27.1127 22.2213 26.9957 22.5039 26.9957 22.7986V24.4431H18.8845C18.5899 24.4431 18.3072 24.5601 18.0989 24.7685C17.8905 24.9769 17.7734 25.2595 17.7734 25.5542V36.6653C17.7734 36.96 17.8905 37.2426 18.0989 37.451C18.3072 37.6593 18.5899 37.7764 18.8845 37.7764H36.6623C36.957 37.7764 37.2396 37.6593 37.448 37.451C37.6564 37.2426 37.7734 36.96 37.7734 36.6653V25.5542C37.7734 25.2595 37.6564 24.9769 37.448 24.7685C37.2396 24.5601 36.957 24.4431 36.6623 24.4431ZM35.5512 35.5542H19.9957V26.6653H26.9957V27.1208C26.9957 27.4155 27.1127 27.6981 27.3211 27.9065C27.5295 28.1149 27.8121 28.2319 28.1068 28.2319C28.4015 28.2319 28.6841 28.1149 28.8924 27.9065C29.1008 27.6981 29.2179 27.4155 29.2179 27.1208V26.6653H35.5512V35.5542Z" fill="#111111"/>
<path d="M24.2308 30.4666H30.8531V32.0221H24.2308V30.4666ZM12.0419 13.5999C8.96578 13.6514 5.94294 14.4118 3.20862 15.8221C2.91124 15.9792 2.66215 16.2142 2.48797 16.5018C2.31378 16.7895 2.22107 17.1192 2.21973 17.4555V20.8999C2.21973 21.1946 2.33679 21.4772 2.54516 21.6856C2.75354 21.894 3.03615 22.011 3.33084 22.011C3.62552 22.011 3.90814 21.894 4.11651 21.6856C4.32489 21.4772 4.44195 21.1946 4.44195 20.8999V17.6777C7.0545 16.3773 9.94702 15.74 12.8642 15.8221C12.4825 15.1258 12.2055 14.377 12.0419 13.5999ZM36.7864 15.811C34.334 14.5246 31.6388 13.7675 28.8753 13.5888C28.7125 14.3645 28.4394 15.1129 28.0642 15.811C30.6676 15.8733 33.225 16.5108 35.5531 17.6777V20.8999C35.5531 21.1946 35.6701 21.4772 35.8785 21.6856C36.0869 21.894 36.3695 22.011 36.6642 22.011C36.9589 22.011 37.2415 21.894 37.4498 21.6856C37.6582 21.4772 37.7753 21.1946 37.7753 20.8999V17.4555C37.776 17.1173 37.6842 16.7853 37.5099 16.4955C37.3356 16.2057 37.0854 15.969 36.7864 15.811ZM11.8419 11.7888V11.0444C10.9715 10.9279 10.1796 10.4802 9.63092 9.79446C9.08227 9.10875 8.81923 8.23786 8.89654 7.36309C8.97386 6.48831 9.38557 5.67706 10.046 5.0982C10.7064 4.51934 11.5646 4.21749 12.4419 4.25547C13.3545 4.25382 14.2317 4.60866 14.8864 5.24436C15.4641 4.76789 16.0985 4.36482 16.7753 4.04436C16.0193 3.17509 15.0177 2.55529 13.9024 2.26666C12.7871 1.97803 11.6105 2.03411 10.5278 2.42751C9.44501 2.82092 8.50686 3.53318 7.83698 4.47042C7.1671 5.40766 6.79694 6.52588 6.77528 7.67769C6.7986 9.08742 7.34661 10.4378 8.31228 11.4651C9.27795 12.4924 10.5919 13.1229 11.9975 13.2332C11.9032 12.7573 11.8512 12.2739 11.8419 11.7888ZM27.5197 2.03325C26.7562 2.03342 26.0003 2.18581 25.2963 2.48152C24.5923 2.77723 23.9544 3.21032 23.4197 3.75547C24.1709 4.02766 24.8812 4.40151 25.5308 4.86658C26.0496 4.5065 26.6563 4.29395 27.2863 4.25159C27.9163 4.20923 28.546 4.33865 29.1083 4.62605C29.6705 4.91345 30.1443 5.34805 30.4789 5.88352C30.8136 6.41899 30.9967 7.03525 31.0086 7.66658C31.0016 8.31507 30.8111 8.94831 30.4591 9.493C30.1071 10.0377 29.6081 10.4716 29.0197 10.7444C29.0644 11.087 29.0867 11.4322 29.0864 11.7777C29.0834 12.2243 29.0463 12.6701 28.9753 13.111C30.1857 12.7998 31.2593 12.0972 32.029 11.1125C32.7986 10.1278 33.2212 8.91634 33.2308 7.66658C33.2162 6.16359 32.6073 4.72747 31.5372 3.67196C30.4671 2.61644 29.0228 2.0273 27.5197 2.03325Z" fill="#111111"/>
</svg>
