<svg width="34" height="36" viewBox="0 0 34 36" fill="none" xmlns="http://www.w3.org/2000/svg">
<path d="M26.2983 11.4015L27.07 10.6282C27.6844 10.0135 28.5178 9.66813 29.3869 9.66797C30.256 9.66781 31.0895 10.0129 31.7042 10.6273C32.3188 11.2417 32.6642 12.0752 32.6643 12.9442C32.6645 13.8133 32.3194 14.6468 31.705 15.2615L30.9333 16.0348M26.2983 11.4015C26.2983 11.4015 26.395 13.0415 27.8433 14.4898C29.2917 15.9382 30.9333 16.0348 30.9333 16.0348M26.2983 11.4015L19.1983 18.5015C18.715 18.9815 18.475 19.2232 18.2683 19.4882C18.025 19.8015 17.8167 20.1382 17.645 20.4982C17.5 20.8015 17.3933 21.1232 17.1783 21.7682L16.49 23.8348L16.2667 24.5032M30.9333 16.0348L23.8333 23.1348C23.35 23.6182 23.11 23.8582 22.845 24.0648C22.5317 24.3082 22.195 24.5165 21.835 24.6882C21.5317 24.8332 21.21 24.9398 20.565 25.1548L18.4983 25.8432L17.83 26.0665M16.2667 24.5032L16.045 25.1732C15.9934 25.3287 15.986 25.4955 16.0238 25.6549C16.0615 25.8144 16.1429 25.9602 16.2587 26.0761C16.3746 26.192 16.5204 26.2733 16.6799 26.3111C16.8393 26.3488 17.0061 26.3415 17.1617 26.2898L17.83 26.0665M16.2667 24.5032L17.83 26.0665" stroke="#111111" stroke-width="1.5"/>
<path d="M9.33333 19.6673H13.5M9.33333 13.0007H20.1667M9.33333 26.334H11.8333M1 21.334V14.6673C1 8.38232 1 5.23898 2.95333 3.28732C4.905 1.33398 8.04833 1.33398 14.3333 1.33398H17.6667C23.9517 1.33398 27.095 1.33398 29.0467 3.28732M31 21.334C31 27.619 31 30.7623 29.0467 32.714M29.0467 32.714C27.095 34.6673 23.9517 34.6673 17.6667 34.6673H14.3333C8.04833 34.6673 4.905 34.6673 2.95333 32.714M29.0467 32.714C30.62 31.1423 30.925 28.8007 30.985 24.6673" stroke="#111111" stroke-width="1.5" stroke-linecap="round"/>
</svg>
