<svg width="25" height="25" viewBox="0 0 25 25" fill="none" xmlns="http://www.w3.org/2000/svg">
<g clip-path="url(#clip0_2035_7630)">
<path d="M8.85909 1.28992C6.46112 2.1218 4.39311 3.70073 2.95882 5.7948C1.52454 7.88887 0.799573 10.3877 0.890418 12.9242C0.981264 15.4608 1.88313 17.9013 3.46355 19.8874C5.04396 21.8735 7.21962 23.3005 9.67096 23.9587C11.6583 24.4715 13.7405 24.494 15.7385 24.0243C17.5484 23.6177 19.2218 22.7481 20.5947 21.5005C22.0236 20.1624 23.0608 18.4602 23.5947 16.5768C24.1749 14.5286 24.2781 12.3748 23.8966 10.2805H12.7366V14.9099H19.1997C19.0705 15.6483 18.7937 16.353 18.3859 16.9819C17.978 17.6107 17.4474 18.1509 16.826 18.5699C16.0368 19.0922 15.1471 19.4435 14.2141 19.6012C13.2784 19.7752 12.3186 19.7752 11.3828 19.6012C10.4344 19.4053 9.53716 19.0138 8.74846 18.4518C7.48124 17.5548 6.52973 16.2804 6.02971 14.8105C5.52138 13.3131 5.52138 11.6898 6.02971 10.1924C6.38564 9.14283 6.97403 8.18717 7.75096 7.3968C8.64007 6.4757 9.76571 5.81729 11.0044 5.49381C12.243 5.17034 13.5469 5.19429 14.7728 5.56305C15.7306 5.8569 16.6064 6.37057 17.3303 7.06305C18.0591 6.33805 18.7866 5.61117 19.5128 4.88242C19.8878 4.49055 20.2966 4.11742 20.666 3.71617C19.5607 2.68777 18.2634 1.88749 16.8485 1.36117C14.2717 0.425527 11.4522 0.400382 8.85909 1.28992Z" fill="white"/>
<path d="M8.85875 1.29083C11.4516 0.400689 14.2711 0.425171 16.8481 1.36021C18.2634 1.8901 19.56 2.69423 20.6637 3.72646C20.2887 4.12771 19.8931 4.50271 19.5106 4.89271C18.7831 5.61896 18.0562 6.34271 17.33 7.06396C16.606 6.37148 15.7302 5.85781 14.7725 5.56396C13.547 5.19391 12.2432 5.16857 11.0042 5.49072C9.76516 5.81288 8.63883 6.47007 7.74875 7.39021C6.97181 8.18059 6.38342 9.13624 6.0275 10.1858L2.14062 7.17646C3.53189 4.41751 5.94078 2.30713 8.85875 1.29083Z" fill="#E33629"/>
<path d="M1.1114 10.157C1.32016 9.1216 1.66701 8.11889 2.14265 7.17578L6.02953 10.1927C5.52119 11.6901 5.52119 13.3134 6.02953 14.8108C4.73453 15.8108 3.4389 16.8158 2.14265 17.8258C0.952308 15.4564 0.589275 12.7567 1.1114 10.157Z" fill="#F8BD00"/>
<path d="M12.7391 10.2773H23.8991C24.2807 12.3716 24.1774 14.5254 23.5972 16.5736C23.0633 18.457 22.0261 20.1592 20.5972 21.4973C19.3429 20.5186 18.0829 19.5473 16.8285 18.5686C17.4504 18.1491 17.9812 17.6084 18.3891 16.9788C18.797 16.3493 19.0735 15.6439 19.2022 14.9048H12.7391C12.7372 13.3636 12.7391 11.8205 12.7391 10.2773Z" fill="#587DBD"/>
<path d="M2.14062 17.8236C3.43687 16.8236 4.7325 15.8186 6.0275 14.8086C6.52851 16.279 7.48138 17.5534 8.75 18.4498C9.54116 19.0093 10.4403 19.3975 11.39 19.5898C12.3257 19.7639 13.2855 19.7639 14.2213 19.5898C15.1543 19.4321 16.044 19.0808 16.8331 18.5586C18.0875 19.5373 19.3475 20.5086 20.6019 21.4873C19.2292 22.7356 17.5558 23.6059 15.7456 24.013C13.7476 24.4827 11.6655 24.4601 9.67813 23.9473C8.10632 23.5277 6.63814 22.7878 5.36563 21.7742C4.01886 20.7048 2.91882 19.3572 2.14062 17.8236Z" fill="#319F43"/>
</g>
<defs>
<clipPath id="clip0_2035_7630">
<rect width="24" height="24" fill="white" transform="translate(0.5 0.5)"/>
</clipPath>
</defs>
</svg>
