<svg width="100" height="100" viewBox="0 0 100 100" fill="none" xmlns="http://www.w3.org/2000/svg">
<mask id="mask0_126_617" style="mask-type:luminance" maskUnits="userSpaceOnUse" x="6" y="6" width="88" height="88">
<path d="M49.9987 91.6664C55.4715 91.6735 60.8917 90.5989 65.9479 88.5045C71.0041 86.4101 75.5965 83.3371 79.4612 79.4622C83.3362 75.5975 86.4091 71.0051 88.5035 65.9489C90.598 60.8927 91.6725 55.4725 91.6654 49.9997C91.6724 44.5269 90.5978 39.1068 88.5034 34.0506C86.409 28.9944 83.3361 24.402 79.4612 20.5372C75.5965 16.6623 71.0041 13.5893 65.9479 11.4949C60.8917 9.40049 55.4715 8.32595 49.9987 8.33304C44.526 8.32607 39.1058 9.40065 34.0496 11.495C28.9935 13.5894 24.401 16.6624 20.5362 20.5372C16.6614 24.402 13.5885 28.9944 11.4941 34.0506C9.39967 39.1068 8.32509 44.5269 8.33207 49.9997C8.32498 55.4725 9.39951 60.8927 11.4939 65.9489C13.5883 71.0051 16.6613 75.5975 20.5362 79.4622C24.401 83.3371 28.9935 86.41 34.0496 88.5044C39.1058 90.5988 44.526 91.6733 49.9987 91.6664Z" fill="white" stroke="white" stroke-width="4" stroke-linejoin="round"/>
<path d="M33.332 50L45.832 62.5L70.832 37.5" stroke="black" stroke-width="4" stroke-linecap="round" stroke-linejoin="round"/>
</mask>
<g mask="url(#mask0_126_617)">
<path d="M0 0H100V100H0V0Z" fill="#6F00B6"/>
</g>
</svg>
