<svg width="24" height="25" viewBox="0 0 24 25" fill="none" xmlns="http://www.w3.org/2000/svg">
<g id="Eyes">
<g id="Group">
<path id="Vector" d="M12 15.5C12.7956 15.5 13.5587 15.1839 14.1213 14.6213C14.6839 14.0587 15 13.2956 15 12.5C15 11.7044 14.6839 10.9413 14.1213 10.3787C13.5587 9.81607 12.7956 9.5 12 9.5C11.2044 9.5 10.4413 9.81607 9.87868 10.3787C9.31607 10.9413 9 11.7044 9 12.5C9 13.2956 9.31607 14.0587 9.87868 14.6213C10.4413 15.1839 11.2044 15.5 12 15.5Z" fill="#232323"/>
<path id="Vector_2" fill-rule="evenodd" clip-rule="evenodd" d="M0.796268 13.2076C0.619994 12.7496 0.619994 12.2424 0.796268 11.7844C1.66894 9.5218 3.20641 7.57654 5.20622 6.20478C7.20603 4.83302 9.5744 4.09908 11.9995 4.09961C17.1079 4.09961 21.4711 7.29161 23.2027 11.7916C23.3791 12.2488 23.3779 12.7564 23.2027 13.2148C22.33 15.4774 20.7925 17.4227 18.7927 18.7944C16.7929 20.1662 14.4245 20.9001 11.9995 20.8996C6.89107 20.8996 2.52787 17.7076 0.796268 13.2076ZM16.7995 12.4996C16.7995 13.7726 16.2938 14.9935 15.3936 15.8937C14.4934 16.7939 13.2725 17.2996 11.9995 17.2996C10.7264 17.2996 9.50553 16.7939 8.60536 15.8937C7.70518 14.9935 7.19947 13.7726 7.19947 12.4996C7.19947 11.2266 7.70518 10.0057 8.60536 9.1055C9.50553 8.20532 10.7264 7.69961 11.9995 7.69961C13.2725 7.69961 14.4934 8.20532 15.3936 9.1055C16.2938 10.0057 16.7995 11.2266 16.7995 12.4996Z" fill="#232323"/>
</g>
</g>
</svg>
