<svg xmlns="http://www.w3.org/2000/svg" width="25" height="25" viewBox="0 0 25 25" fill="none">
<path d="M19.5102 5.63694L18.1769 6.67861L12.4998 10.8974L6.82274 6.63694L5.48941 5.59527C5.1753 5.33542 4.79186 5.17344 4.38659 5.12939C3.98131 5.08534 3.57202 5.16115 3.20942 5.34744C2.84682 5.53374 2.54683 5.82232 2.34664 6.17743C2.14645 6.53255 2.05484 6.9386 2.08316 7.34527V19.4182C2.08316 19.7939 2.23242 20.1542 2.49809 20.4199C2.76377 20.6856 3.1241 20.8349 3.49983 20.8349H6.82274V12.7932L12.4998 17.0536L18.1769 12.7932V20.8349H21.4998C21.8756 20.8349 22.2359 20.6856 22.5016 20.4199C22.7672 20.1542 22.9165 19.7939 22.9165 19.4182V7.34527C22.9361 6.94211 22.8381 6.54194 22.6345 6.19342C22.4309 5.8449 22.1304 5.56303 21.7696 5.38208C21.4088 5.20112 21.0032 5.12888 20.6021 5.17412C20.201 5.21937 19.8217 5.38016 19.5102 5.63694Z" fill="#6E4B84"/>
</svg>