<svg width="25" height="25" viewBox="0 0 25 25" fill="none" xmlns="http://www.w3.org/2000/svg">
<g clip-path="url(#clip0_1432_5113)">
<path d="M8.85909 1.28894C6.46112 2.12082 4.39311 3.69976 2.95882 5.79382C1.52454 7.88789 0.799573 10.3867 0.890418 12.9233C0.981264 15.4598 1.88313 17.9004 3.46355 19.8864C5.04396 21.8725 7.21962 23.2995 9.67096 23.9577C11.6583 24.4705 13.7405 24.493 15.7385 24.0233C17.5484 23.6168 19.2218 22.7471 20.5947 21.4996C22.0236 20.1615 23.0608 18.4592 23.5947 16.5758C24.1749 14.5277 24.2781 12.3738 23.8966 10.2796H12.7366V14.9089H19.1997C19.0705 15.6473 18.7937 16.352 18.3859 16.9809C17.978 17.6098 17.4474 18.1499 16.826 18.5689C16.0368 19.0912 15.1471 19.4425 14.2141 19.6002C13.2784 19.7742 12.3186 19.7742 11.3828 19.6002C10.4344 19.4043 9.53716 19.0129 8.74846 18.4508C7.48124 17.5538 6.52973 16.2794 6.02971 14.8096C5.52138 13.3122 5.52138 11.6889 6.02971 10.1914C6.38564 9.14185 6.97403 8.1862 7.75096 7.39582C8.64007 6.47472 9.76571 5.81631 11.0044 5.49284C12.243 5.16936 13.5469 5.19331 14.7728 5.56207C15.7306 5.85593 16.6064 6.36959 17.3303 7.06207C18.0591 6.33707 18.7866 5.61019 19.5128 4.88144C19.8878 4.48957 20.2966 4.11644 20.666 3.71519C19.5607 2.68679 18.2634 1.88651 16.8485 1.36019C14.2717 0.42455 11.4522 0.399406 8.85909 1.28894Z" fill="white"/>
<path d="M8.85875 1.28986C11.4516 0.399712 14.2711 0.424195 16.8481 1.35923C18.2634 1.88913 19.56 2.69326 20.6637 3.72548C20.2887 4.12673 19.8931 4.50173 19.5106 4.89173C18.7831 5.61798 18.0562 6.34173 17.33 7.06298C16.606 6.3705 15.7302 5.85684 14.7725 5.56298C13.547 5.19293 12.2432 5.16759 11.0042 5.48975C9.76516 5.8119 8.63883 6.4691 7.74875 7.38923C6.97181 8.17961 6.38342 9.13526 6.0275 10.1849L2.14062 7.17548C3.53189 4.41653 5.94078 2.30615 8.85875 1.28986Z" fill="#E33629"/>
<path d="M1.1114 10.1561C1.32016 9.12063 1.66701 8.11792 2.14265 7.1748L6.02953 10.1917C5.52119 11.6891 5.52119 13.3124 6.02953 14.8098C4.73453 15.8098 3.4389 16.8148 2.14265 17.8248C0.952308 15.4554 0.589275 12.7557 1.1114 10.1561Z" fill="#F8BD00"/>
<path d="M12.7391 10.2783H23.8991C24.2807 12.3726 24.1774 14.5264 23.5972 16.5746C23.0633 18.458 22.0261 20.1602 20.5972 21.4983C19.3429 20.5196 18.0829 19.5483 16.8285 18.5696C17.4504 18.1501 17.9812 17.6094 18.3891 16.9798C18.797 16.3503 19.0735 15.6448 19.2022 14.9058H12.7391C12.7372 13.3646 12.7391 11.8214 12.7391 10.2783Z" fill="#587DBD"/>
<path d="M2.14062 17.8246C3.43687 16.8246 4.7325 15.8196 6.0275 14.8096C6.52851 16.2799 7.48138 17.5544 8.75 18.4508C9.54116 19.0103 10.4403 19.3985 11.39 19.5908C12.3257 19.7649 13.2855 19.7649 14.2213 19.5908C15.1543 19.4331 16.044 19.0818 16.8331 18.5596C18.0875 19.5383 19.3475 20.5096 20.6019 21.4883C19.2292 22.7366 17.5558 23.6068 15.7456 24.0139C13.7476 24.4836 11.6655 24.4611 9.67813 23.9483C8.10632 23.5286 6.63814 22.7888 5.36563 21.7752C4.01886 20.7057 2.91882 19.3582 2.14062 17.8246Z" fill="#319F43"/>
</g>
<defs>
<clipPath id="clip0_1432_5113">
<rect width="24" height="24" fill="white" transform="translate(0.5 0.5)"/>
</clipPath>
</defs>
</svg>
