<svg width="18" height="18" viewBox="0 0 18 18" fill="none" xmlns="http://www.w3.org/2000/svg">
<path fill-rule="evenodd" clip-rule="evenodd" d="M11.3831 12.447C10.0351 13.5241 8.32581 14.0442 6.60631 13.9004C4.88682 13.7566 3.28765 12.9598 2.13727 11.6738C0.986879 10.3877 0.372596 8.70996 0.420583 6.98513C0.468569 5.2603 1.17518 3.61931 2.39529 2.3992C3.61541 1.17909 5.25639 0.472475 6.98122 0.424489C8.70606 0.376502 10.3838 0.990785 11.6699 2.14117C12.9559 3.29156 13.7527 4.89072 13.8965 6.61022C14.0403 8.32972 13.5202 10.039 12.4431 11.387L17.5991 16.542C17.6728 16.6107 17.7319 16.6935 17.7729 16.7855C17.8139 16.8775 17.836 16.9768 17.8377 17.0775C17.8395 17.1782 17.821 17.2783 17.7833 17.3716C17.7455 17.465 17.6894 17.5499 17.6182 17.6211C17.547 17.6923 17.4621 17.7484 17.3687 17.7862C17.2753 17.8239 17.1753 17.8424 17.0746 17.8406C16.9739 17.8389 16.8746 17.8168 16.7826 17.7758C16.6906 17.7348 16.6078 17.6757 16.5391 17.602L11.3831 12.447ZM3.45814 10.885C2.72418 10.151 2.22429 9.21587 2.02165 8.19781C1.81901 7.17976 1.92271 6.12448 2.31965 5.16534C2.71659 4.20621 3.38895 3.38627 4.25175 2.80914C5.11456 2.23202 6.12908 1.92362 7.16711 1.92293C8.20513 1.92223 9.22007 2.22926 10.0837 2.80522C10.9472 3.38118 11.6207 4.20021 12.0189 5.15882C12.4172 6.11742 12.5223 7.17256 12.321 8.19088C12.1197 9.20921 11.6211 10.145 10.8881 10.88L10.8831 10.885L10.8781 10.889C9.89323 11.8717 8.55856 12.4232 7.16731 12.4224C5.77605 12.4217 4.44198 11.8687 3.45814 10.885Z" fill="#9DB2BF"/>
</svg>
