<svg width="29" height="19" viewBox="0 0 29 19" fill="none" xmlns="http://www.w3.org/2000/svg">
<path d="M27.5898 10.6646H7.13284C6.84729 10.6646 6.57343 10.5593 6.37151 10.3719C6.1696 10.1844 6.05616 9.93023 6.05616 9.66516C6.05616 9.40009 6.1696 9.14588 6.37151 8.95844C6.57343 8.77101 6.84729 8.66571 7.13284 8.66571H27.5898C27.8754 8.66571 28.1492 8.77101 28.3512 8.95844C28.5531 9.14588 28.6665 9.40009 28.6665 9.66516C28.6665 9.93023 28.5531 10.1844 28.3512 10.3719C28.1492 10.5593 27.8754 10.6646 27.5898 10.6646ZM11.1273 18.3704C11.2283 18.2775 11.3084 18.1669 11.363 18.0451C11.4177 17.9233 11.4458 17.7927 11.4458 17.6608C11.4458 17.5288 11.4177 17.3982 11.363 17.2764C11.3084 17.1546 11.2283 17.0441 11.1273 16.9512L3.26755 9.66516L11.1273 2.37917C11.2277 2.28598 11.3074 2.17535 11.3617 2.05359C11.416 1.93184 11.444 1.80134 11.444 1.66956C11.444 1.53777 11.416 1.40727 11.3617 1.28552C11.3074 1.16376 11.2277 1.05313 11.1273 0.959946C11.0269 0.866759 10.9078 0.792838 10.7766 0.742406C10.6454 0.691973 10.5049 0.666016 10.3629 0.666016C10.2209 0.666016 10.0803 0.691973 9.94918 0.742406C9.81801 0.792838 9.69884 0.866759 9.59845 0.959946L0.984985 8.95555C0.884069 9.04846 0.80397 9.159 0.749308 9.2808C0.694647 9.40259 0.666504 9.53322 0.666504 9.66516C0.666504 9.7971 0.694647 9.92774 0.749308 10.0495C0.80397 10.1713 0.884069 10.2819 0.984985 10.3748L9.59845 18.3704C9.69854 18.4641 9.81762 18.5384 9.94883 18.5892C10.08 18.6399 10.2208 18.666 10.3629 18.666C10.505 18.666 10.6458 18.6399 10.777 18.5892C10.9082 18.5384 11.0272 18.4641 11.1273 18.3704Z" fill="black"/>
</svg>
