<svg width="161" height="27" viewBox="0 0 161 27" fill="none" xmlns="http://www.w3.org/2000/svg">
<path d="M14.6816 0.40625H19.5156V17.4043C19.5156 19.3613 19.0938 21.0078 18.25 22.3438C17.4062 23.668 16.2578 24.6699 14.8047 25.3496C13.3516 26.0176 11.6992 26.3516 9.84766 26.3516C7.97266 26.3516 6.30273 26.0176 4.83789 25.3496C3.37305 24.6699 2.22461 23.668 1.39258 22.3438C0.560547 21.0078 0.144531 19.3613 0.144531 17.4043V0.40625H4.97852V17.4043C4.97852 18.5996 5.17773 19.5781 5.57617 20.3398C5.97461 21.0898 6.53711 21.6465 7.26367 22.0098C7.99023 22.373 8.85156 22.5547 9.84766 22.5547C10.8555 22.5547 11.7168 22.373 12.4316 22.0098C13.1582 21.6465 13.7148 21.0898 14.1016 20.3398C14.4883 19.5781 14.6816 18.5996 14.6816 17.4043V0.40625ZM29.2539 0.40625V26H24.4199V0.40625H29.2539ZM42.1211 26H36.6016L36.6367 22.2031H42.1211C43.6094 22.2031 44.8574 21.875 45.8652 21.2188C46.873 20.5508 47.6348 19.5957 48.1504 18.3535C48.666 17.0996 48.9238 15.5996 48.9238 13.8535V12.5352C48.9238 11.1875 48.7773 9.99805 48.4844 8.9668C48.1914 7.93555 47.7578 7.06836 47.1836 6.36523C46.6211 5.66211 45.9238 5.12891 45.0918 4.76562C44.2598 4.40234 43.3047 4.2207 42.2266 4.2207H36.4961V0.40625H42.2266C43.9375 0.40625 45.4961 0.693359 46.9023 1.26758C48.3203 1.8418 49.5449 2.66797 50.5762 3.74609C51.6191 4.8125 52.416 6.08984 52.9668 7.57812C53.5293 9.06641 53.8105 10.7305 53.8105 12.5703V13.8535C53.8105 15.6816 53.5293 17.3457 52.9668 18.8457C52.416 20.334 51.6191 21.6113 50.5762 22.6777C49.5449 23.7441 48.3145 24.5645 46.8848 25.1387C45.4551 25.7129 43.8672 26 42.1211 26ZM39.3086 0.40625V26H34.4746V0.40625H39.3086ZM78.6484 12.5527V13.8711C78.6484 15.8047 78.3906 17.5449 77.875 19.0918C77.3594 20.627 76.627 21.9336 75.6777 23.0117C74.7285 24.0898 73.5977 24.916 72.2852 25.4902C70.9727 26.0645 69.5137 26.3516 67.9082 26.3516C66.3262 26.3516 64.873 26.0645 63.5488 25.4902C62.2363 24.916 61.0996 24.0898 60.1387 23.0117C59.1777 21.9336 58.4336 20.627 57.9062 19.0918C57.3789 17.5449 57.1152 15.8047 57.1152 13.8711V12.5527C57.1152 10.6074 57.3789 8.86719 57.9062 7.33203C58.4336 5.79688 59.1719 4.49023 60.1211 3.41211C61.0703 2.32227 62.2012 1.49023 63.5137 0.916016C64.8379 0.341797 66.291 0.0546875 67.873 0.0546875C69.4785 0.0546875 70.9375 0.341797 72.25 0.916016C73.5625 1.49023 74.6934 2.32227 75.6426 3.41211C76.6035 4.49023 77.3418 5.79688 77.8574 7.33203C78.3848 8.86719 78.6484 10.6074 78.6484 12.5527ZM73.7617 13.8711V12.5176C73.7617 11.123 73.6328 9.89844 73.375 8.84375C73.1172 7.77734 72.7363 6.88086 72.2324 6.1543C71.7285 5.42773 71.1074 4.88281 70.3691 4.51953C69.6309 4.14453 68.7988 3.95703 67.873 3.95703C66.9355 3.95703 66.1035 4.14453 65.377 4.51953C64.6621 4.88281 64.0527 5.42773 63.5488 6.1543C63.0449 6.88086 62.6582 7.77734 62.3887 8.84375C62.1309 9.89844 62.002 11.123 62.002 12.5176V13.8711C62.002 15.2539 62.1309 16.4785 62.3887 17.5449C62.6582 18.6113 63.0449 19.5137 63.5488 20.252C64.0645 20.9785 64.6855 21.5293 65.4121 21.9043C66.1387 22.2793 66.9707 22.4668 67.9082 22.4668C68.8457 22.4668 69.6777 22.2793 70.4043 21.9043C71.1309 21.5293 71.7402 20.9785 72.2324 20.252C72.7363 19.5137 73.1172 18.6113 73.375 17.5449C73.6328 16.4785 73.7617 15.2539 73.7617 13.8711ZM103.311 0.40625V26H98.459L87.5781 8.24609V26H82.7441V0.40625H87.5781L98.4941 18.1777V0.40625H103.311ZM108.074 23.7324C108.074 23.0293 108.314 22.4375 108.795 21.957C109.275 21.4766 109.926 21.2363 110.746 21.2363C111.566 21.2363 112.217 21.4766 112.697 21.957C113.178 22.4375 113.418 23.0293 113.418 23.7324C113.418 24.4238 113.178 25.0098 112.697 25.4902C112.217 25.959 111.566 26.1934 110.746 26.1934C109.926 26.1934 109.275 25.959 108.795 25.4902C108.314 25.0098 108.074 24.4238 108.074 23.7324ZM123.297 0.40625V26H118.463V0.40625H123.297ZM138.66 0.40625L128.395 12.8867L122.523 19.1621L121.662 14.4688L125.74 9.17773L132.736 0.40625H138.66ZM133.281 26L125.318 14.0117L128.781 10.8828L139.029 26H133.281ZM160.686 12.7637V22.7305C160.311 23.2109 159.719 23.7324 158.91 24.2949C158.113 24.8574 157.07 25.3438 155.781 25.7539C154.492 26.1523 152.91 26.3516 151.035 26.3516C149.406 26.3516 147.918 26.082 146.57 25.543C145.223 24.9922 144.062 24.1895 143.09 23.1348C142.117 22.0801 141.367 20.791 140.84 19.2676C140.312 17.7441 140.049 16.0039 140.049 14.0469V12.3594C140.049 10.4023 140.295 8.66211 140.787 7.13867C141.291 5.61523 142.006 4.32617 142.932 3.27148C143.869 2.2168 144.988 1.41406 146.289 0.863281C147.602 0.3125 149.066 0.0371094 150.684 0.0371094C152.852 0.0371094 154.633 0.394531 156.027 1.10938C157.434 1.82422 158.512 2.80859 159.262 4.0625C160.012 5.30469 160.48 6.73438 160.668 8.35156H155.957C155.828 7.46094 155.57 6.68164 155.184 6.01367C154.797 5.33398 154.246 4.80664 153.531 4.43164C152.828 4.04492 151.914 3.85156 150.789 3.85156C149.84 3.85156 149.002 4.03906 148.275 4.41406C147.549 4.78906 146.939 5.33398 146.447 6.04883C145.955 6.76367 145.58 7.64844 145.322 8.70312C145.076 9.75781 144.953 10.9648 144.953 12.3242V14.0469C144.953 15.418 145.094 16.6367 145.375 17.7031C145.656 18.7578 146.061 19.6484 146.588 20.375C147.127 21.0898 147.789 21.6348 148.574 22.0098C149.371 22.373 150.273 22.5547 151.281 22.5547C152.195 22.5547 152.951 22.4785 153.549 22.3262C154.158 22.1621 154.645 21.9688 155.008 21.7461C155.371 21.5234 155.652 21.3066 155.852 21.0957V16.2969H150.771V12.7637H160.686Z" fill="#6F00B6"/>
</svg>
