<svg width="51" height="50" viewBox="0 0 51 50" fill="none" xmlns="http://www.w3.org/2000/svg">
<path d="M42.168 16.6654L25.5013 27.082L8.83464 16.6654V12.4987L25.5013 22.9154L42.168 12.4987M42.168 8.33203H8.83464C6.52214 8.33203 4.66797 10.1862 4.66797 12.4987V37.4987C4.66797 38.6038 5.10696 39.6636 5.88836 40.445C6.66976 41.2264 7.72957 41.6654 8.83464 41.6654H42.168C43.273 41.6654 44.3328 41.2264 45.1142 40.445C45.8956 39.6636 46.3346 38.6038 46.3346 37.4987V12.4987C46.3346 11.3936 45.8956 10.3338 45.1142 9.55242C44.3328 8.77102 43.273 8.33203 42.168 8.33203Z" fill="#6F00B6"/>
</svg>
