<svg width="50" height="50"  viewBox="0 0 30 30" fill="none" xmlns="http://www.w3.org/2000/svg">
                                 <path fill-rule="evenodd" clip-rule="evenodd" d="M17.9799 19.3076C16.2949 20.654 14.1582 21.304 12.0089 21.1243C9.8595 20.9445 7.86054 19.9486 6.42256 18.341C4.98458 16.7334 4.21672 14.6362 4.2767 12.4802C4.33669 10.3242 5.21995 8.27292 6.74509 6.74778C8.27023 5.22264 10.3215 4.33937 12.4775 4.27939C14.6335 4.21941 16.7307 4.98726 18.3383 6.42525C19.9459 7.86323 20.9418 9.86219 21.1216 12.0116C21.3013 14.1609 20.6513 16.2975 19.3049 17.9826L25.7499 24.4263C25.842 24.5122 25.9159 24.6157 25.9671 24.7307C26.0184 24.8457 26.0459 24.9698 26.0481 25.0957C26.0504 25.2216 26.0272 25.3466 25.98 25.4633C25.9329 25.5801 25.8627 25.6861 25.7737 25.7751C25.6847 25.8642 25.5786 25.9343 25.4619 25.9815C25.3452 26.0286 25.2201 26.0518 25.0942 26.0496C24.9684 26.0474 24.8442 26.0198 24.7292 25.9686C24.6142 25.9173 24.5107 25.8434 24.4249 25.7513L17.9799 19.3076ZM8.07365 17.3551C7.1562 16.4375 6.53134 15.2686 6.27804 13.996C6.02474 12.7235 6.15436 11.4044 6.65054 10.2055C7.14671 9.00654 7.98716 7.98161 9.06566 7.26021C10.1442 6.53881 11.4123 6.15331 12.7099 6.15244C14.0074 6.15156 15.2761 6.53535 16.3555 7.2553C17.435 7.97525 18.2768 8.99905 18.7746 10.1973C19.2724 11.3955 19.4038 12.7145 19.1522 13.9874C18.9006 15.2603 18.2774 16.4301 17.3611 17.3488L17.3549 17.3551L17.3486 17.3601C16.1175 18.5884 14.4492 19.2777 12.7101 19.2768C10.971 19.2759 9.30346 18.5847 8.07365 17.3551Z" fill="black"/>
                            </svg>