<svg xmlns="http://www.w3.org/2000/svg" width="25" height="25" viewBox="0 0 25 25" fill="none">
<path d="M12.4987 2.08203C6.7487 2.08203 2.08203 6.7487 2.08203 12.4987C2.08203 18.2487 6.7487 22.9154 12.4987 22.9154C18.2487 22.9154 22.9154 18.2487 22.9154 12.4987C22.9154 6.7487 18.2487 2.08203 12.4987 2.08203ZM17.332 9.16536C17.1758 10.8112 16.4987 14.8112 16.1549 16.6549C16.0091 17.4362 15.7174 17.6966 15.4466 17.7279C14.8424 17.7799 14.3841 17.332 13.8008 16.9466C12.8841 16.3424 12.3633 15.9674 11.4779 15.3841C10.4466 14.707 11.1133 14.332 11.707 13.7279C11.8633 13.5716 14.5299 11.1445 14.582 10.9258C14.5893 10.8926 14.5883 10.8583 14.5792 10.8256C14.5701 10.7929 14.5532 10.7629 14.5299 10.7383C14.4674 10.6862 14.3841 10.707 14.3112 10.7174C14.2174 10.7383 12.7591 11.707 9.91536 13.6237C9.4987 13.9049 9.1237 14.0508 8.79036 14.0404C8.41536 14.0299 7.70703 13.832 7.17578 13.6549C6.51953 13.4466 6.00911 13.332 6.05078 12.9674C6.07161 12.7799 6.33203 12.5924 6.82161 12.3945C9.86328 11.0716 11.8841 10.1966 12.8945 9.77995C15.7904 8.57161 16.3841 8.36328 16.7799 8.36328C16.8633 8.36328 17.0612 8.38411 17.1862 8.48828C17.2904 8.57161 17.3216 8.6862 17.332 8.76953C17.3216 8.83203 17.3424 9.01953 17.332 9.16536Z" fill="#6E4B84"/>
</svg>