<svg xmlns="http://www.w3.org/2000/svg" width="25" height="25" viewBox="0 0 25 25" fill="none">
<path fill-rule="evenodd" clip-rule="evenodd" d="M12.4987 2.08203C6.74557 2.08203 2.08203 6.74557 2.08203 12.4987C2.08203 14.4674 2.62891 16.3112 3.57995 17.882L2.65078 21.0404C2.59743 21.2217 2.59392 21.4141 2.64062 21.5972C2.68732 21.7804 2.7825 21.9476 2.91616 22.0812C3.04981 22.2149 3.21701 22.3101 3.40017 22.3568C3.58334 22.4035 3.7757 22.4 3.95703 22.3466L7.11536 21.4174C8.73899 22.3998 10.601 22.9179 12.4987 22.9154C18.2518 22.9154 22.9154 18.2518 22.9154 12.4987C22.9154 6.74557 18.2518 2.08203 12.4987 2.08203ZM10.1424 14.856C12.2497 16.9622 14.2612 17.2404 14.9716 17.2664C16.0518 17.306 17.1039 16.481 17.5133 15.5237C17.565 15.4046 17.5837 15.2738 17.5676 15.145C17.5515 15.0162 17.5011 14.8941 17.4216 14.7914C16.8508 14.0622 16.0789 13.5383 15.3247 13.0174C15.1673 12.9086 14.9738 12.8649 14.7848 12.8956C14.5959 12.9263 14.4261 13.0289 14.3112 13.182L13.6862 14.1352C13.6533 14.1864 13.6021 14.2231 13.5431 14.2379C13.484 14.2526 13.4215 14.2442 13.3685 14.2143C12.9445 13.9716 12.3268 13.5591 11.8831 13.1154C11.4393 12.6716 11.0518 12.082 10.8341 11.6852C10.8071 11.6347 10.7993 11.5762 10.8122 11.5205C10.825 11.4648 10.8576 11.4156 10.9039 11.382L11.8664 10.6674C12.0038 10.548 12.0924 10.3822 12.1155 10.2017C12.1385 10.0211 12.0944 9.83839 11.9914 9.68828C11.5247 9.00495 10.981 8.1362 10.1924 7.56016C10.0907 7.48641 9.97147 7.44043 9.84654 7.42673C9.72162 7.41303 9.59528 7.43209 9.47995 7.48203C8.52161 7.89245 7.69245 8.94453 7.73203 10.0268C7.75807 10.7372 8.0362 12.7487 10.1424 14.856Z" fill="#6E4B84"/>
</svg>