<svg width="20" height="22" viewBox="0 0 20 22" fill="none" xmlns="http://www.w3.org/2000/svg">
<path fill-rule="evenodd" clip-rule="evenodd" d="M5 3C5 1.34315 6.34315 0 8 0H12C13.6569 0 15 1.34315 15 3V4H19C19.5523 4 20 4.44772 20 5C20 5.55228 19.5523 6 19 6H17.9394L17.1153 19.1871C17.0164 20.7682 15.7053 22 14.1211 22H5.8789C4.29471 22 2.98356 20.7682 2.88474 19.1871L2.06055 6H1C0.447715 6 0 5.55228 0 5C0 4.44772 0.447715 4 1 4H5V3ZM7 4H13V3C13 2.44772 12.5523 2 12 2H8C7.44772 2 7 2.44772 7 3V4ZM4.06445 6L4.88085 19.0624C4.91379 19.5894 5.35084 20 5.8789 20H14.1211C14.6492 20 15.0862 19.5894 15.1191 19.0624L15.9355 6H4.06445Z" fill="#E3E3E3"/>
</svg>
