<svg width="25" height="26" viewBox="0 0 25 26" fill="none" xmlns="http://www.w3.org/2000/svg">
<g id="Behance">
<path id="Vector" d="M10.2612 11.8159C10.4736 11.6621 10.5762 11.4082 10.5762 11.0591C10.5835 10.8931 10.5493 10.7295 10.4761 10.5806C10.4102 10.4609 10.3125 10.3608 10.1929 10.29C10.0688 10.2148 9.93107 10.165 9.7876 10.1436C9.63135 10.1143 9.47266 10.0996 9.31641 10.1021H7.6001V12.0479H9.45801C9.77783 12.0503 10.0488 11.9722 10.2612 11.8159ZM10.5493 13.5737C10.3101 13.3906 9.99023 13.3003 9.59229 13.3003H7.59521V15.5952H9.55322C9.73633 15.5952 9.90479 15.5781 10.0684 15.5439C10.2231 15.5137 10.3706 15.454 10.5029 15.3682C10.6274 15.2876 10.7275 15.1777 10.8032 15.0361C10.8765 14.8945 10.9131 14.7139 10.9131 14.4966C10.9131 14.0645 10.791 13.7593 10.5493 13.5737ZM12.5 1.89648C6.45996 1.89648 1.5625 6.79395 1.5625 12.834C1.5625 18.874 6.45996 23.7715 12.5 23.7715C18.54 23.7715 23.4375 18.874 23.4375 12.834C23.4375 6.79395 18.54 1.89648 12.5 1.89648ZM14.6118 8.90088H17.9907V9.72363H14.6118V8.90088ZM12.5 15.6855C12.342 15.9855 12.1163 16.2447 11.8408 16.4424C11.5527 16.6426 11.2329 16.7891 10.8936 16.8745C10.5385 16.9697 10.1722 17.0165 9.80469 17.0137H5.76172V8.68604H9.69238C10.0903 8.68604 10.4517 8.72266 10.7812 8.79102C11.1084 8.85938 11.3867 8.97656 11.6211 9.13525C11.853 9.29395 12.0361 9.50635 12.1655 9.77002C12.2925 10.0312 12.3584 10.3584 12.3584 10.7466C12.3584 11.1665 12.2632 11.5132 12.0728 11.7939C11.8799 12.0747 11.6016 12.3018 11.2231 12.48C11.7383 12.6265 12.1167 12.8877 12.3657 13.2539C12.6196 13.625 12.7441 14.0693 12.7441 14.5918C12.7441 15.0166 12.6636 15.3804 12.5 15.6855ZM19.3066 14.3965H14.9512C14.9512 14.8701 15.1147 15.3242 15.3613 15.5684C15.6104 15.8101 15.9668 15.9321 16.4331 15.9321C16.77 15.9321 17.0557 15.8467 17.2998 15.6782C17.5415 15.5098 17.688 15.3315 17.7417 15.146H19.2017C18.9673 15.8711 18.6108 16.3887 18.1274 16.7012C17.6489 17.0137 17.063 17.1699 16.3818 17.1699C15.9058 17.1699 15.4785 17.0918 15.0952 16.9429C14.7266 16.7988 14.3945 16.5791 14.1211 16.2959C13.8515 16.0051 13.6431 15.663 13.5083 15.29C13.3594 14.8774 13.2861 14.4429 13.291 14.0059C13.291 13.5542 13.3667 13.1343 13.5132 12.7437C13.7939 11.9844 14.3774 11.3765 15.1221 11.0615C15.52 10.8955 15.9473 10.8125 16.3794 10.8174C16.8921 10.8174 17.3364 10.915 17.7222 11.1152C18.0935 11.3064 18.416 11.5804 18.6646 11.916C18.9111 12.2505 19.0845 12.6313 19.1943 13.061C19.2993 13.4834 19.3359 13.9277 19.3066 14.3965ZM16.3281 12.0625C16.0645 12.0625 15.8423 12.1089 15.6714 12.1992C15.5005 12.2896 15.3589 12.4019 15.2515 12.5312C15.1492 12.6562 15.0735 12.8008 15.0293 12.9561C14.9902 13.0854 14.9634 13.2173 14.9536 13.3516H17.6514C17.6123 12.9292 17.4658 12.6167 17.2705 12.397C17.0654 12.1797 16.7358 12.0625 16.3281 12.0625Z" fill="#6E4B84"/>
</g>
</svg>
