<svg width="16" height="11" viewBox="0 0 16 11" fill="none" xmlns="http://www.w3.org/2000/svg">
<g id="Frame 342">
<path id="Vector" d="M15.954 5.27725C15.9307 5.22293 15.366 3.93112 14.1107 2.63656C12.438 0.911624 10.3253 0 8 0C5.67466 0 3.562 0.911624 1.88933 2.63656C0.633994 3.93112 0.0666603 5.225 0.0459936 5.27725C0.0156691 5.34759 0 5.42371 0 5.50068C0 5.57766 0.0156691 5.65378 0.0459936 5.72412C0.069327 5.77843 0.633994 7.06956 1.88933 8.36412C3.562 10.0884 5.67466 11 8 11C10.3253 11 12.438 10.0884 14.1107 8.36412C15.366 7.06956 15.9307 5.77843 15.954 5.72412C15.9843 5.65378 16 5.57766 16 5.50068C16 5.42371 15.9843 5.34759 15.954 5.27725ZM8 9.89999C5.948 9.89999 4.15533 9.13068 2.67133 7.61406C2.06243 6.9896 1.54439 6.27753 1.13333 5.5C1.54428 4.72239 2.06233 4.01031 2.67133 3.38594C4.15533 1.86931 5.948 1.1 8 1.1C10.052 1.1 11.8447 1.86931 13.3287 3.38594C13.9388 4.01016 14.4579 4.72224 14.87 5.5C14.3893 6.42537 12.2953 9.89999 8 9.89999ZM8 2.2C7.3671 2.2 6.74841 2.39354 6.22217 2.75615C5.69594 3.11876 5.28578 3.63415 5.04358 4.23714C4.80138 4.84014 4.73801 5.50366 4.86148 6.14379C4.98496 6.78393 5.28973 7.37193 5.73726 7.83345C6.18478 8.29496 6.75497 8.60925 7.37571 8.73659C7.99645 8.86392 8.63986 8.79857 9.22459 8.5488C9.80931 8.29903 10.3091 7.87606 10.6607 7.33338C11.0123 6.7907 11.2 6.15267 11.2 5.5C11.1991 4.62506 10.8617 3.78622 10.2618 3.16755C9.66184 2.54888 8.84842 2.20091 8 2.2ZM8 7.7C7.57807 7.7 7.16561 7.57097 6.81478 7.32923C6.46396 7.08749 6.19052 6.7439 6.02906 6.3419C5.86759 5.9399 5.82534 5.49756 5.90766 5.0708C5.98997 4.64404 6.19315 4.25204 6.4915 3.94436C6.78986 3.63669 7.16998 3.42716 7.58381 3.34227C7.99763 3.25738 8.42658 3.30095 8.81639 3.46746C9.20621 3.63398 9.53939 3.91596 9.7738 4.27774C10.0082 4.63953 10.1333 5.06488 10.1333 5.5C10.1333 6.08347 9.90857 6.64305 9.50849 7.05563C9.10842 7.46821 8.5658 7.7 8 7.7Z" fill="#111111"/>
</g>
</svg>
