<svg width="25" height="26" viewBox="0 0 25 26" fill="none" xmlns="http://www.w3.org/2000/svg">
<g id="Gmail">
<path id="Vector" d="M19.5105 5.96897L18.1772 7.01064L12.5001 11.2294L6.82299 6.96897L5.48966 5.9273C5.17555 5.66746 4.7921 5.50547 4.38683 5.46142C3.98156 5.41737 3.57227 5.49318 3.20966 5.67948C2.84706 5.86577 2.54708 6.15435 2.34688 6.50947C2.14669 6.86458 2.05508 7.27063 2.0834 7.67731V19.7502C2.0834 20.1259 2.23266 20.4863 2.49834 20.752C2.76401 21.0176 3.12435 21.1669 3.50007 21.1669H6.82299V13.1252L12.5001 17.3856L18.1772 13.1252V21.1669H21.5001C21.8758 21.1669 22.2361 21.0176 22.5018 20.752C22.7675 20.4863 22.9167 20.1259 22.9167 19.7502V7.67731C22.9363 7.27414 22.8383 6.87398 22.6347 6.52545C22.4311 6.17693 22.1306 5.89506 21.7698 5.71411C21.409 5.53315 21.0034 5.46091 20.6023 5.50615C20.2012 5.5514 19.8219 5.71219 19.5105 5.96897Z" fill="#6E4B84"/>
</g>
</svg>
