<svg width="25" height="26" viewBox="0 0 25 26" fill="none" xmlns="http://www.w3.org/2000/svg">
<g id="Group">
<path id="Vector" fill-rule="evenodd" clip-rule="evenodd" d="M12.4999 2.41797C6.74679 2.41797 2.08325 7.08151 2.08325 12.8346C2.08325 14.8034 2.63013 16.6471 3.58117 18.218L2.652 21.3763C2.59865 21.5576 2.59514 21.75 2.64184 21.9332C2.68854 22.1163 2.78372 22.2835 2.91738 22.4172C3.05103 22.5508 3.21823 22.646 3.40139 22.6927C3.58456 22.7394 3.77692 22.7359 3.95825 22.6826L7.11658 21.7534C8.74021 22.7358 10.6022 23.2539 12.4999 23.2513C18.253 23.2513 22.9166 18.5878 22.9166 12.8346C22.9166 7.08151 18.253 2.41797 12.4999 2.41797ZM10.1437 15.1919C12.251 17.2982 14.2624 17.5763 14.9728 17.6023C16.053 17.6419 17.1051 16.8169 17.5145 15.8596C17.5662 15.7405 17.5849 15.6098 17.5688 15.481C17.5527 15.3521 17.5023 15.23 17.4228 15.1273C16.852 14.3982 16.0801 13.8742 15.326 13.3534C15.1685 13.2445 14.975 13.2008 14.786 13.2315C14.5971 13.2622 14.4273 13.3649 14.3124 13.518L13.6874 14.4711C13.6546 14.5223 13.6034 14.5591 13.5443 14.5738C13.4852 14.5885 13.4228 14.5801 13.3697 14.5503C12.9458 14.3076 12.328 13.8951 11.8843 13.4513C11.4405 13.0076 11.053 12.418 10.8353 12.0211C10.8083 11.9707 10.8005 11.9122 10.8134 11.8564C10.8262 11.8007 10.8588 11.7515 10.9051 11.718L11.8676 11.0034C12.005 10.884 12.0936 10.7182 12.1167 10.5376C12.1397 10.3571 12.0956 10.1743 11.9926 10.0242C11.526 9.34089 10.9822 8.47214 10.1937 7.89609C10.0919 7.82235 9.97269 7.77636 9.84776 7.76267C9.72284 7.74897 9.5965 7.76803 9.48117 7.81797C8.52284 8.22838 7.69367 9.28047 7.73325 10.3628C7.75929 11.0732 8.03742 13.0846 10.1437 15.1919Z" fill="#6E4B84"/>
</g>
</svg>
