<svg width="144" height="24" viewBox="0 0 144 24" fill="none" xmlns="http://www.w3.org/2000/svg">
<path d="M12 17.27L18.18 21L16.54 13.97L22 9.24L14.81 8.62L12 2L9.19 8.62L2 9.24L7.45 13.97L5.82 21L12 17.27Z" fill="#6E4B84"/>
<path d="M42 17.27L48.18 21L46.54 13.97L52 9.24L44.81 8.62L42 2L39.19 8.62L32 9.24L37.45 13.97L35.82 21L42 17.27Z" fill="#6E4B84"/>
<path d="M72 17.27L78.18 21L76.54 13.97L82 9.24L74.81 8.62L72 2L69.19 8.62L62 9.24L67.45 13.97L65.82 21L72 17.27Z" fill="#6E4B84"/>
<path d="M102 17.27L108.18 21L106.54 13.97L112 9.24L104.81 8.62L102 2L99.19 8.62L92 9.24L97.45 13.97L95.82 21L102 17.27Z" fill="#6E4B84"/>
<path d="M132 17.27L138.18 21L136.54 13.97L142 9.24L134.81 8.62L132 2L129.19 8.62L122 9.24L127.45 13.97L125.82 21L132 17.27Z" fill="#6E4B84"/>
</svg>
