<svg width="25" height="26" viewBox="0 0 25 26" fill="none" xmlns="http://www.w3.org/2000/svg">
<g id="Telegram">
<path id="Vector" d="M12.4999 2.41797C6.74992 2.41797 2.08325 7.08464 2.08325 12.8346C2.08325 18.5846 6.74992 23.2513 12.4999 23.2513C18.2499 23.2513 22.9166 18.5846 22.9166 12.8346C22.9166 7.08464 18.2499 2.41797 12.4999 2.41797ZM17.3333 9.5013C17.177 11.1471 16.4999 15.1471 16.1562 16.9909C16.0103 17.7721 15.7187 18.0326 15.4478 18.0638C14.8437 18.1159 14.3853 17.668 13.802 17.2826C12.8853 16.6784 12.3645 16.3034 11.4791 15.7201C10.4478 15.043 11.1145 14.668 11.7083 14.0638C11.8645 13.9076 14.5312 11.4805 14.5833 11.2617C14.5905 11.2286 14.5895 11.1942 14.5804 11.1615C14.5714 11.1288 14.5545 11.0989 14.5312 11.0742C14.4687 11.0221 14.3853 11.043 14.3124 11.0534C14.2187 11.0742 12.7603 12.043 9.91659 13.9596C9.49992 14.2409 9.12492 14.3867 8.79158 14.3763C8.41658 14.3659 7.70825 14.168 7.177 13.9909C6.52075 13.7826 6.01033 13.668 6.052 13.3034C6.07283 13.1159 6.33325 12.9284 6.82284 12.7305C9.8645 11.4076 11.8853 10.5326 12.8958 10.1159C15.7916 8.90755 16.3853 8.69922 16.7812 8.69922C16.8645 8.69922 17.0624 8.72005 17.1874 8.82422C17.2916 8.90755 17.3228 9.02214 17.3333 9.10547C17.3228 9.16797 17.3437 9.35547 17.3333 9.5013Z" fill="#6E4B84"/>
</g>
</svg>
