<svg width="16" height="15" viewBox="0 0 16 15" fill="none" xmlns="http://www.w3.org/2000/svg">
<path id="Vector" d="M11.6364 0.353516C10.1091 0.353516 8.78109 1.07333 8 2.2796C7.21891 1.07333 5.89091 0.353516 4.36364 0.353516C3.20674 0.354924 2.09762 0.835863 1.27957 1.69083C0.461519 2.5458 0.00134735 3.70498 0 4.91409C0 7.13356 1.32364 9.44349 3.93455 11.7785C5.13094 12.844 6.42328 13.7858 7.79345 14.5909C7.85695 14.6265 7.92791 14.6452 8 14.6452C8.07208 14.6452 8.14305 14.6265 8.20654 14.5909C9.57672 13.7858 10.8691 12.844 12.0655 11.7785C14.6764 9.44349 16 7.13356 16 4.91409C15.9987 3.70498 15.5385 2.5458 14.7204 1.69083C13.9024 0.835863 12.7933 0.354924 11.6364 0.353516ZM8 13.6635C6.80655 12.9437 0.872727 9.14934 0.872727 4.91409C0.87369 3.94676 1.24179 3.01935 1.89625 2.33535C2.55072 1.65135 3.43809 1.26664 4.36364 1.26563C5.83855 1.26563 7.07709 2.08881 7.59636 3.41442C7.62924 3.49806 7.68517 3.56961 7.75704 3.61996C7.82891 3.67031 7.91348 3.69719 8 3.69719C8.08652 3.69719 8.17109 3.67031 8.24296 3.61996C8.31483 3.56961 8.37076 3.49806 8.40364 3.41442C8.92291 2.08881 10.1615 1.26563 11.6364 1.26563C12.5619 1.26664 13.4493 1.65135 14.1037 2.33535C14.7582 3.01935 15.1263 3.94676 15.1273 4.91409C15.1273 9.14934 9.19345 12.9437 8 13.6635Z" fill="#111111"/>
</svg>
