<svg width="20" height="21" viewBox="0 0 20 21" fill="none" xmlns="http://www.w3.org/2000/svg">
<path d="M11.0286 0.335215C11.7583 0.332415 12.488 0.339749 13.2176 0.357215L13.4116 0.364215C13.6356 0.372215 13.8566 0.382215 14.1236 0.394215C15.1876 0.444215 15.9136 0.612215 16.5506 0.859215C17.2106 1.11321 17.7666 1.45721 18.3226 2.01321C18.831 2.51282 19.2244 3.11716 19.4756 3.78421C19.7226 4.42121 19.8906 5.14821 19.9406 6.21221C19.9526 6.47821 19.9626 6.70021 19.9706 6.92421L19.9766 7.11822C19.9943 7.84741 20.002 8.57681 19.9996 9.30622L20.0006 10.0522V11.3622C20.003 12.092 19.9954 12.8217 19.9776 13.5512L19.9716 13.7452C19.9636 13.9692 19.9536 14.1902 19.9416 14.4572C19.8916 15.5212 19.7216 16.2472 19.4756 16.8842C19.2252 17.552 18.8317 18.1568 18.3226 18.6562C17.8225 19.1645 17.2179 19.558 16.5506 19.8092C15.9136 20.0562 15.1876 20.2242 14.1236 20.2742C13.8566 20.2862 13.6356 20.2962 13.4116 20.3042L13.2176 20.3102C12.4881 20.328 11.7583 20.3357 11.0286 20.3332L10.2826 20.3342H8.97358C8.24384 20.3367 7.5141 20.329 6.78458 20.3112L6.59058 20.3052C6.35319 20.2966 6.11585 20.2866 5.87858 20.2752C4.81458 20.2252 4.08858 20.0552 3.45058 19.8092C2.78326 19.5586 2.17881 19.165 1.67958 18.6562C1.17062 18.1565 0.776801 17.5518 0.525577 16.8842C0.278577 16.2472 0.110577 15.5212 0.0605769 14.4572C0.0494399 14.2199 0.0394398 13.9826 0.030577 13.7452L0.0255771 13.5512C0.00714068 12.8217 -0.00119355 12.092 0.000577001 11.3622V9.30622C-0.00221397 8.57682 0.00512015 7.84741 0.0225771 7.11822L0.029577 6.92421C0.037577 6.70021 0.047577 6.47821 0.059577 6.21221C0.109577 5.14721 0.277577 4.42221 0.524577 3.78421C0.77595 3.11683 1.17054 2.51266 1.68058 2.01421C2.17947 1.50497 2.78354 1.11079 3.45058 0.859215C4.08858 0.612215 4.81358 0.444215 5.87858 0.394215L6.59058 0.364215L6.78458 0.359215C7.51376 0.340788 8.24316 0.332454 8.97258 0.334215L11.0286 0.335215ZM10.0006 5.33521C9.33808 5.32584 8.68033 5.44824 8.06555 5.69528C7.45077 5.94233 6.89122 6.30909 6.41942 6.77427C5.94762 7.23945 5.57298 7.79375 5.31726 8.40498C5.06155 9.0162 4.92987 9.67216 4.92987 10.3347C4.92987 10.9973 5.06155 11.6532 5.31726 12.2645C5.57298 12.8757 5.94762 13.43 6.41942 13.8952C6.89122 14.3603 7.45077 14.7271 8.06555 14.9741C8.68033 15.2212 9.33808 15.3436 10.0006 15.3342C11.3267 15.3342 12.5984 14.8074 13.5361 13.8697C14.4738 12.9321 15.0006 11.6603 15.0006 10.3342C15.0006 9.00813 14.4738 7.73636 13.5361 6.79868C12.5984 5.861 11.3267 5.33521 10.0006 5.33521ZM10.0006 7.33522C10.3991 7.32787 10.7951 7.40001 11.1654 7.54742C11.5357 7.69483 11.8729 7.91456 12.1574 8.19376C12.4418 8.47296 12.6678 8.80605 12.822 9.17356C12.9763 9.54107 13.0558 9.93563 13.0558 10.3342C13.0559 10.7328 12.9766 11.1274 12.8224 11.4949C12.6683 11.8625 12.4424 12.1957 12.1581 12.475C11.8737 12.7542 11.5366 12.9741 11.1663 13.1216C10.796 13.2692 10.4001 13.3414 10.0016 13.3342C9.20593 13.3342 8.44287 13.0181 7.88026 12.4555C7.31765 11.8929 7.00158 11.1299 7.00158 10.3342C7.00158 9.53857 7.31765 8.7755 7.88026 8.21289C8.44287 7.65028 9.20593 7.33421 10.0016 7.33421L10.0006 7.33522ZM15.2506 3.83521C14.928 3.84813 14.6229 3.98537 14.3992 4.21819C14.1755 4.45101 14.0506 4.76135 14.0506 5.08421C14.0506 5.40708 14.1755 5.71742 14.3992 5.95024C14.6229 6.18306 14.928 6.3203 15.2506 6.33321C15.5821 6.33321 15.9 6.20152 16.1345 5.9671C16.3689 5.73268 16.5006 5.41474 16.5006 5.08321C16.5006 4.75169 16.3689 4.43375 16.1345 4.19933C15.9 3.96491 15.5821 3.83321 15.2506 3.83321V3.83521Z" fill="#6E4B84"/>
</svg>
