<svg width="24" height="22" viewBox="0 0 24 22" fill="none" xmlns="http://www.w3.org/2000/svg">
<path d="M23.9889 1.86477C24.0117 1.72736 23.9983 1.58637 23.9499 1.45574C23.9015 1.32512 23.8199 1.20939 23.7131 1.12001C23.6062 1.03063 23.4779 0.970689 23.3408 0.946128C23.2037 0.921567 23.0625 0.933233 22.9313 0.979972L0.531298 8.97997C0.383646 9.03262 0.254717 9.12749 0.160525 9.2528C0.0663328 9.3781 0.0110296 9.52832 0.0014847 9.68478C-0.00806016 9.84125 0.028574 9.99708 0.106837 10.1329C0.185099 10.2687 0.301541 10.3786 0.441698 10.4488L6.8417 13.6488C6.96782 13.7119 7.1084 13.7406 7.24917 13.7319C7.38995 13.7231 7.52592 13.6774 7.6433 13.5992L12.9553 10.0568L9.7761 14.0344C9.70691 14.1209 9.65647 14.221 9.62797 14.328C9.59947 14.4351 9.59352 14.547 9.61052 14.6565C9.62752 14.766 9.66709 14.8708 9.72671 14.9642C9.78634 15.0576 9.86472 15.1376 9.9569 15.1992L19.5569 21.5992C19.6681 21.6731 19.796 21.718 19.9289 21.7298C20.0619 21.7417 20.1957 21.72 20.3182 21.6669C20.4407 21.6138 20.5479 21.5309 20.6301 21.4257C20.7123 21.3205 20.7669 21.1964 20.7889 21.0648L23.9889 1.86477Z" fill="#6E4B84"/>
</svg>
