<svg width="182" height="29" viewBox="0 0 182 29" fill="none" xmlns="http://www.w3.org/2000/svg">
<path d="M11.3086 15.3379H13.1016C13.1016 16.5645 12.75 17.4863 12.0469 18.1035C11.3438 18.7129 10.3906 19.0176 9.1875 19.0176C8.35156 19.0176 7.62891 18.8262 7.01953 18.4434C6.41016 18.0605 5.9375 17.5293 5.60156 16.8496C5.27344 16.1699 5.10938 15.3809 5.10938 14.4824V13.1113C5.10938 12.2129 5.27344 11.4238 5.60156 10.7441C5.9375 10.0645 6.41016 9.5332 7.01953 9.15039C7.62891 8.76758 8.35156 8.57617 9.1875 8.57617C10.3906 8.57617 11.3438 8.88086 12.0469 9.49023C12.7578 10.0996 13.1133 11.0176 13.1133 12.2441H11.3203C11.3203 11.4863 11.1406 10.9434 10.7812 10.6152C10.4219 10.2871 9.89062 10.123 9.1875 10.123C8.67969 10.123 8.25391 10.252 7.91016 10.5098C7.57422 10.7598 7.31641 11.1074 7.13672 11.5527C6.96484 11.998 6.87891 12.5137 6.87891 13.0996V14.4824C6.87891 15.0684 6.96484 15.5879 7.13672 16.041C7.31641 16.4863 7.57422 16.8379 7.91016 17.0957C8.25391 17.3457 8.67969 17.4707 9.1875 17.4707C9.89062 17.4707 10.418 17.3066 10.7695 16.9785C11.1289 16.6504 11.3086 16.1035 11.3086 15.3379ZM2.4375 13.791C2.4375 14.8223 2.61328 15.7832 2.96484 16.6738C3.32422 17.5645 3.82031 18.3457 4.45312 19.0176C5.09375 19.6816 5.83203 20.2012 6.66797 20.5762C7.50391 20.9434 8.39844 21.127 9.35156 21.127C10.3047 21.127 11.1953 20.9434 12.0234 20.5762C12.8594 20.2012 13.5938 19.6816 14.2266 19.0176C14.8672 18.3457 15.3633 17.5645 15.7148 16.6738C16.0742 15.7832 16.2539 14.8223 16.2539 13.791C16.2539 12.752 16.0742 11.791 15.7148 10.9082C15.3633 10.0176 14.8672 9.24023 14.2266 8.57617C13.5938 7.91211 12.8594 7.39648 12.0234 7.0293C11.1953 6.66211 10.3047 6.47852 9.35156 6.47852C8.39844 6.47852 7.50391 6.66211 6.66797 7.0293C5.83203 7.39648 5.09375 7.91211 4.45312 8.57617C3.82031 9.24023 3.32422 10.0176 2.96484 10.9082C2.61328 11.791 2.4375 12.752 2.4375 13.791ZM1.03125 13.791C1.03125 12.5488 1.24609 11.3965 1.67578 10.334C2.10547 9.27148 2.70312 8.3457 3.46875 7.55664C4.23438 6.75977 5.11719 6.14258 6.11719 5.70508C7.125 5.25977 8.20312 5.03711 9.35156 5.03711C10.5 5.03711 11.5742 5.25977 12.5742 5.70508C13.582 6.14258 14.4648 6.75977 15.2227 7.55664C15.9883 8.3457 16.5859 9.27148 17.0156 10.334C17.4531 11.3965 17.6719 12.5488 17.6719 13.791C17.6719 15.0332 17.4531 16.1855 17.0156 17.248C16.5859 18.3105 15.9883 19.2402 15.2227 20.0371C14.4648 20.834 13.582 21.4551 12.5742 21.9004C11.5742 22.3457 10.5 22.5684 9.35156 22.5684C8.20312 22.5684 7.125 22.3457 6.11719 21.9004C5.11719 21.4551 4.23438 20.834 3.46875 20.0371C2.70312 19.2402 2.10547 18.3105 1.67578 17.248C1.24609 16.1855 1.03125 15.0332 1.03125 13.791ZM35.7891 5.27148H39.293V16.5449C39.293 17.8574 39.0117 18.9629 38.4492 19.8613C37.8945 20.7598 37.125 21.4355 36.1406 21.8887C35.1641 22.3418 34.0391 22.5684 32.7656 22.5684C31.4922 22.5684 30.3594 22.3418 29.3672 21.8887C28.3828 21.4355 27.6094 20.7598 27.0469 19.8613C26.4922 18.9629 26.2148 17.8574 26.2148 16.5449V5.27148H29.7305V16.5449C29.7305 17.3105 29.8516 17.9355 30.0938 18.4199C30.3359 18.9043 30.6836 19.2598 31.1367 19.4863C31.5977 19.7129 32.1406 19.8262 32.7656 19.8262C33.4062 19.8262 33.9492 19.7129 34.3945 19.4863C34.8477 19.2598 35.1914 18.9043 35.4258 18.4199C35.668 17.9355 35.7891 17.3105 35.7891 16.5449V5.27148ZM45.5391 9.6543V22.334H42.1523V9.6543H45.5391ZM41.9414 6.34961C41.9414 5.85742 42.1133 5.45117 42.457 5.13086C42.8008 4.81055 43.2617 4.65039 43.8398 4.65039C44.4102 4.65039 44.8672 4.81055 45.2109 5.13086C45.5625 5.45117 45.7383 5.85742 45.7383 6.34961C45.7383 6.8418 45.5625 7.24805 45.2109 7.56836C44.8672 7.88867 44.4102 8.04883 43.8398 8.04883C43.2617 8.04883 42.8008 7.88867 42.457 7.56836C42.1133 7.24805 41.9414 6.8418 41.9414 6.34961ZM55.8164 19.5684V4.33398H59.2148V22.334H56.1562L55.8164 19.5684ZM47.8008 16.1465V15.9004C47.8008 14.9316 47.9102 14.0527 48.1289 13.2637C48.3477 12.4668 48.668 11.7832 49.0898 11.2129C49.5117 10.6426 50.0312 10.2012 50.6484 9.88867C51.2656 9.57617 51.9688 9.41992 52.7578 9.41992C53.5 9.41992 54.1484 9.57617 54.7031 9.88867C55.2656 10.2012 55.7422 10.6465 56.1328 11.2246C56.5312 11.7949 56.8516 12.4707 57.0938 13.252C57.3359 14.0254 57.5117 14.873 57.6211 15.7949V16.334C57.5117 17.2168 57.3359 18.0371 57.0938 18.7949C56.8516 19.5527 56.5312 20.2168 56.1328 20.7871C55.7422 21.3496 55.2656 21.7871 54.7031 22.0996C54.1406 22.4121 53.4844 22.5684 52.7344 22.5684C51.9453 22.5684 51.2422 22.4082 50.625 22.0879C50.0156 21.7676 49.5 21.3184 49.0781 20.7402C48.6641 20.1621 48.3477 19.4824 48.1289 18.7012C47.9102 17.9199 47.8008 17.0684 47.8008 16.1465ZM51.1758 15.9004V16.1465C51.1758 16.6699 51.2148 17.1582 51.293 17.6113C51.3789 18.0645 51.5156 18.4668 51.7031 18.8184C51.8984 19.1621 52.1484 19.4316 52.4531 19.627C52.7656 19.8145 53.1445 19.9082 53.5898 19.9082C54.168 19.9082 54.6445 19.7793 55.0195 19.5215C55.3945 19.2559 55.6797 18.8926 55.875 18.4316C56.0781 17.9707 56.1953 17.4395 56.2266 16.8379V15.3027C56.2031 14.8105 56.1328 14.3691 56.0156 13.9785C55.9062 13.5801 55.7422 13.2402 55.5234 12.959C55.3125 12.6777 55.0469 12.459 54.7266 12.3027C54.4141 12.1465 54.043 12.0684 53.6133 12.0684C53.1758 12.0684 52.8008 12.1699 52.4883 12.373C52.1758 12.5684 51.9219 12.8379 51.7266 13.1816C51.5391 13.5254 51.3984 13.9316 51.3047 14.4004C51.2188 14.8613 51.1758 15.3613 51.1758 15.9004ZM61.3125 16.123V15.877C61.3125 14.9473 61.4453 14.0918 61.7109 13.3105C61.9766 12.5215 62.3633 11.8379 62.8711 11.2598C63.3789 10.6816 64.0039 10.2324 64.7461 9.91211C65.4883 9.58398 66.3398 9.41992 67.3008 9.41992C68.2617 9.41992 69.1172 9.58398 69.8672 9.91211C70.6172 10.2324 71.2461 10.6816 71.7539 11.2598C72.2695 11.8379 72.6602 12.5215 72.9258 13.3105C73.1914 14.0918 73.3242 14.9473 73.3242 15.877V16.123C73.3242 17.0449 73.1914 17.9004 72.9258 18.6895C72.6602 19.4707 72.2695 20.1543 71.7539 20.7402C71.2461 21.3184 70.6211 21.7676 69.8789 22.0879C69.1367 22.4082 68.2852 22.5684 67.3242 22.5684C66.3633 22.5684 65.5078 22.4082 64.7578 22.0879C64.0156 21.7676 63.3867 21.3184 62.8711 20.7402C62.3633 20.1543 61.9766 19.4707 61.7109 18.6895C61.4453 17.9004 61.3125 17.0449 61.3125 16.123ZM64.6875 15.877V16.123C64.6875 16.6543 64.7344 17.1504 64.8281 17.6113C64.9219 18.0723 65.0703 18.4785 65.2734 18.8301C65.4844 19.1738 65.7578 19.4434 66.0938 19.6387C66.4297 19.834 66.8398 19.9316 67.3242 19.9316C67.793 19.9316 68.1953 19.834 68.5312 19.6387C68.8672 19.4434 69.1367 19.1738 69.3398 18.8301C69.543 18.4785 69.6914 18.0723 69.7852 17.6113C69.8867 17.1504 69.9375 16.6543 69.9375 16.123V15.877C69.9375 15.3613 69.8867 14.877 69.7852 14.4238C69.6914 13.9629 69.5391 13.5566 69.3281 13.2051C69.125 12.8457 68.8555 12.5645 68.5195 12.3613C68.1836 12.1582 67.7773 12.0566 67.3008 12.0566C66.8242 12.0566 66.418 12.1582 66.082 12.3613C65.7539 12.5645 65.4844 12.8457 65.2734 13.2051C65.0703 13.5566 64.9219 13.9629 64.8281 14.4238C64.7344 14.877 64.6875 15.3613 64.6875 15.877ZM78.7031 12.3613V22.334H75.3281V9.6543H78.4922L78.7031 12.3613ZM78.2109 15.5488H77.2969C77.2969 14.6113 77.418 13.7676 77.6602 13.0176C77.9023 12.2598 78.2422 11.6152 78.6797 11.084C79.1172 10.5449 79.6367 10.1348 80.2383 9.85352C80.8477 9.56445 81.5273 9.41992 82.2773 9.41992C82.8711 9.41992 83.4141 9.50586 83.9062 9.67773C84.3984 9.84961 84.8203 10.123 85.1719 10.498C85.5312 10.873 85.8047 11.3691 85.9922 11.9863C86.1875 12.6035 86.2852 13.3574 86.2852 14.248V22.334H82.8867V14.2363C82.8867 13.6738 82.8086 13.2363 82.6523 12.9238C82.4961 12.6113 82.2656 12.3926 81.9609 12.2676C81.6641 12.1348 81.2969 12.0684 80.8594 12.0684C80.4062 12.0684 80.0117 12.1582 79.6758 12.3379C79.3477 12.5176 79.0742 12.7676 78.8555 13.0879C78.6445 13.4004 78.4844 13.7676 78.375 14.1895C78.2656 14.6113 78.2109 15.0645 78.2109 15.5488ZM89.0156 20.7051C89.0156 20.2051 89.1875 19.7871 89.5312 19.4512C89.8828 19.1152 90.3477 18.9473 90.9258 18.9473C91.5039 18.9473 91.9648 19.1152 92.3086 19.4512C92.6602 19.7871 92.8359 20.2051 92.8359 20.7051C92.8359 21.2051 92.6602 21.623 92.3086 21.959C91.9648 22.2949 91.5039 22.4629 90.9258 22.4629C90.3477 22.4629 89.8828 22.2949 89.5312 21.959C89.1875 21.623 89.0156 21.2051 89.0156 20.7051ZM99.1875 4.32227V22.334H95.8125V4.32227H99.1875ZM107.18 9.6543L101.672 15.9355L98.7188 18.9238L97.4883 16.4863L99.832 13.5098L103.125 9.6543H107.18ZM103.676 22.334L99.9258 16.4746L102.258 14.4355L107.566 22.334H103.676ZM116.426 9.6543H119.484V21.9121C119.484 23.0684 119.227 24.0488 118.711 24.8535C118.203 25.666 117.492 26.2793 116.578 26.6934C115.664 27.1152 114.602 27.3262 113.391 27.3262C112.859 27.3262 112.297 27.2559 111.703 27.1152C111.117 26.9746 110.555 26.7559 110.016 26.459C109.484 26.1621 109.039 25.7871 108.68 25.334L110.168 23.3418C110.559 23.7949 111.012 24.1465 111.527 24.3965C112.043 24.6543 112.613 24.7832 113.238 24.7832C113.848 24.7832 114.363 24.6699 114.785 24.4434C115.207 24.2246 115.531 23.9004 115.758 23.4707C115.984 23.0488 116.098 22.5371 116.098 21.9355V12.584L116.426 9.6543ZM107.895 16.1465V15.9004C107.895 14.9316 108.012 14.0527 108.246 13.2637C108.488 12.4668 108.828 11.7832 109.266 11.2129C109.711 10.6426 110.25 10.2012 110.883 9.88867C111.516 9.57617 112.23 9.41992 113.027 9.41992C113.871 9.41992 114.578 9.57617 115.148 9.88867C115.719 10.2012 116.188 10.6465 116.555 11.2246C116.922 11.7949 117.207 12.4707 117.41 13.252C117.621 14.0254 117.785 14.873 117.902 15.7949V16.334C117.785 17.2168 117.609 18.0371 117.375 18.7949C117.141 19.5527 116.832 20.2168 116.449 20.7871C116.066 21.3496 115.59 21.7871 115.02 22.0996C114.457 22.4121 113.785 22.5684 113.004 22.5684C112.223 22.5684 111.516 22.4082 110.883 22.0879C110.258 21.7676 109.723 21.3184 109.277 20.7402C108.832 20.1621 108.488 19.4824 108.246 18.7012C108.012 17.9199 107.895 17.0684 107.895 16.1465ZM111.27 15.9004V16.1465C111.27 16.6699 111.32 17.1582 111.422 17.6113C111.523 18.0645 111.68 18.4668 111.891 18.8184C112.109 19.1621 112.379 19.4316 112.699 19.627C113.027 19.8145 113.414 19.9082 113.859 19.9082C114.477 19.9082 114.98 19.7793 115.371 19.5215C115.762 19.2559 116.055 18.8926 116.25 18.4316C116.445 17.9707 116.559 17.4395 116.59 16.8379V15.3027C116.574 14.8105 116.508 14.3691 116.391 13.9785C116.273 13.5801 116.109 13.2402 115.898 12.959C115.688 12.6777 115.414 12.459 115.078 12.3027C114.742 12.1465 114.344 12.0684 113.883 12.0684C113.438 12.0684 113.051 12.1699 112.723 12.373C112.402 12.5684 112.133 12.8379 111.914 13.1816C111.703 13.5254 111.543 13.9316 111.434 14.4004C111.324 14.8613 111.27 15.3613 111.27 15.9004ZM139.617 19.6973V22.334H127.945V20.084L133.465 14.166C134.02 13.5488 134.457 13.0059 134.777 12.5371C135.098 12.0605 135.328 11.6348 135.469 11.2598C135.617 10.877 135.691 10.5137 135.691 10.1699C135.691 9.6543 135.605 9.21289 135.434 8.8457C135.262 8.4707 135.008 8.18164 134.672 7.97852C134.344 7.77539 133.938 7.67383 133.453 7.67383C132.938 7.67383 132.492 7.79883 132.117 8.04883C131.75 8.29883 131.469 8.64648 131.273 9.0918C131.086 9.53711 130.992 10.041 130.992 10.6035H127.605C127.605 9.58789 127.848 8.6582 128.332 7.81445C128.816 6.96289 129.5 6.28711 130.383 5.78711C131.266 5.2793 132.312 5.02539 133.523 5.02539C134.719 5.02539 135.727 5.2207 136.547 5.61133C137.375 5.99414 138 6.54883 138.422 7.27539C138.852 7.99414 139.066 8.85352 139.066 9.85352C139.066 10.416 138.977 10.9668 138.797 11.5059C138.617 12.0371 138.359 12.5684 138.023 13.0996C137.695 13.623 137.297 14.1543 136.828 14.6934C136.359 15.2324 135.84 15.791 135.27 16.3691L132.305 19.6973H139.617ZM153.211 12.3027V15.2559C153.211 16.5371 153.074 17.6426 152.801 18.5723C152.527 19.4941 152.133 20.252 151.617 20.8457C151.109 21.4316 150.504 21.8652 149.801 22.1465C149.098 22.4277 148.316 22.5684 147.457 22.5684C146.77 22.5684 146.129 22.4824 145.535 22.3105C144.941 22.1309 144.406 21.8535 143.93 21.4785C143.461 21.1035 143.055 20.6309 142.711 20.0605C142.375 19.4824 142.117 18.7949 141.938 17.998C141.758 17.2012 141.668 16.2871 141.668 15.2559V12.3027C141.668 11.0215 141.805 9.92383 142.078 9.00977C142.359 8.08789 142.754 7.33398 143.262 6.74805C143.777 6.16211 144.387 5.73242 145.09 5.45898C145.793 5.17773 146.574 5.03711 147.434 5.03711C148.121 5.03711 148.758 5.12695 149.344 5.30664C149.938 5.47852 150.473 5.74805 150.949 6.11523C151.426 6.48242 151.832 6.95508 152.168 7.5332C152.504 8.10352 152.762 8.78711 152.941 9.58398C153.121 10.373 153.211 11.2793 153.211 12.3027ZM149.824 15.7012V11.8457C149.824 11.2285 149.789 10.6895 149.719 10.2285C149.656 9.76758 149.559 9.37695 149.426 9.05664C149.293 8.72852 149.129 8.46289 148.934 8.25977C148.738 8.05664 148.516 7.9082 148.266 7.81445C148.016 7.7207 147.738 7.67383 147.434 7.67383C147.051 7.67383 146.711 7.74805 146.414 7.89648C146.125 8.04492 145.879 8.2832 145.676 8.61133C145.473 8.93164 145.316 9.36133 145.207 9.90039C145.105 10.4316 145.055 11.0801 145.055 11.8457V15.7012C145.055 16.3184 145.086 16.8613 145.148 17.3301C145.219 17.7988 145.32 18.2012 145.453 18.5371C145.594 18.8652 145.758 19.1348 145.945 19.3457C146.141 19.5488 146.363 19.6973 146.613 19.791C146.871 19.8848 147.152 19.9316 147.457 19.9316C147.832 19.9316 148.164 19.8574 148.453 19.709C148.75 19.5527 149 19.3105 149.203 18.9824C149.414 18.6465 149.57 18.209 149.672 17.6699C149.773 17.1309 149.824 16.4746 149.824 15.7012ZM167.18 19.6973V22.334H155.508V20.084L161.027 14.166C161.582 13.5488 162.02 13.0059 162.34 12.5371C162.66 12.0605 162.891 11.6348 163.031 11.2598C163.18 10.877 163.254 10.5137 163.254 10.1699C163.254 9.6543 163.168 9.21289 162.996 8.8457C162.824 8.4707 162.57 8.18164 162.234 7.97852C161.906 7.77539 161.5 7.67383 161.016 7.67383C160.5 7.67383 160.055 7.79883 159.68 8.04883C159.312 8.29883 159.031 8.64648 158.836 9.0918C158.648 9.53711 158.555 10.041 158.555 10.6035H155.168C155.168 9.58789 155.41 8.6582 155.895 7.81445C156.379 6.96289 157.062 6.28711 157.945 5.78711C158.828 5.2793 159.875 5.02539 161.086 5.02539C162.281 5.02539 163.289 5.2207 164.109 5.61133C164.938 5.99414 165.562 6.54883 165.984 7.27539C166.414 7.99414 166.629 8.85352 166.629 9.85352C166.629 10.416 166.539 10.9668 166.359 11.5059C166.18 12.0371 165.922 12.5684 165.586 13.0996C165.258 13.623 164.859 14.1543 164.391 14.6934C163.922 15.2324 163.402 15.791 162.832 16.3691L159.867 19.6973H167.18ZM172.746 12.3379H174.551C175.129 12.3379 175.605 12.2402 175.98 12.0449C176.355 11.8418 176.633 11.5605 176.812 11.2012C177 10.834 177.094 10.4082 177.094 9.92383C177.094 9.48633 177.008 9.09961 176.836 8.76367C176.672 8.41992 176.418 8.1543 176.074 7.9668C175.73 7.77148 175.297 7.67383 174.773 7.67383C174.359 7.67383 173.977 7.75586 173.625 7.91992C173.273 8.08398 172.992 8.31445 172.781 8.61133C172.57 8.9082 172.465 9.26758 172.465 9.68945H169.078C169.078 8.75195 169.328 7.93555 169.828 7.24023C170.336 6.54492 171.016 6.00195 171.867 5.61133C172.719 5.2207 173.656 5.02539 174.68 5.02539C175.836 5.02539 176.848 5.21289 177.715 5.58789C178.582 5.95508 179.258 6.49805 179.742 7.2168C180.227 7.93555 180.469 8.82617 180.469 9.88867C180.469 10.4277 180.344 10.9512 180.094 11.459C179.844 11.959 179.484 12.4121 179.016 12.8184C178.555 13.2168 177.992 13.5371 177.328 13.7793C176.664 14.0137 175.918 14.1309 175.09 14.1309H172.746V12.3379ZM172.746 14.9043V13.1582H175.09C176.02 13.1582 176.836 13.2637 177.539 13.4746C178.242 13.6855 178.832 13.9902 179.309 14.3887C179.785 14.7793 180.145 15.2441 180.387 15.7832C180.629 16.3145 180.75 16.9043 180.75 17.5527C180.75 18.3496 180.598 19.0605 180.293 19.6855C179.988 20.3027 179.559 20.8262 179.004 21.2559C178.457 21.6855 177.816 22.0137 177.082 22.2402C176.348 22.459 175.547 22.5684 174.68 22.5684C173.961 22.5684 173.254 22.4707 172.559 22.2754C171.871 22.0723 171.246 21.7715 170.684 21.373C170.129 20.9668 169.684 20.459 169.348 19.8496C169.02 19.2324 168.855 18.502 168.855 17.6582H172.242C172.242 18.0957 172.352 18.4863 172.57 18.8301C172.789 19.1738 173.09 19.4434 173.473 19.6387C173.863 19.834 174.297 19.9316 174.773 19.9316C175.312 19.9316 175.773 19.834 176.156 19.6387C176.547 19.4355 176.844 19.1543 177.047 18.7949C177.258 18.4277 177.363 18.002 177.363 17.5176C177.363 16.8926 177.25 16.3926 177.023 16.0176C176.797 15.6348 176.473 15.3535 176.051 15.1738C175.629 14.9941 175.129 14.9043 174.551 14.9043H172.746Z" fill="#6E4B84"/>
</svg>
