<svg width="24" height="25" viewBox="0 0 24 25" fill="none" xmlns="http://www.w3.org/2000/svg">
<g clip-path="url(#clip0_2098_4914)">
<path fill-rule="evenodd" clip-rule="evenodd" d="M7 3.33398C5.93913 3.33398 4.92172 3.75541 4.17157 4.50556C3.42143 5.2557 3 6.27312 3 7.33398V17.334C3 18.3949 3.42143 19.4123 4.17157 20.1624C4.92172 20.9126 5.93913 21.334 7 21.334H17C18.0609 21.334 19.0783 20.9126 19.8284 20.1624C20.5786 19.4123 21 18.3949 21 17.334V7.33398C21 6.27312 20.5786 5.2557 19.8284 4.50556C19.0783 3.75541 18.0609 3.33398 17 3.33398H7ZM17.332 10.389C17.4792 10.1683 17.5327 9.89823 17.4808 9.63812C17.4288 9.378 17.2757 9.14918 17.055 9.00198C16.8343 8.85479 16.5642 8.80128 16.3041 8.85323C16.044 8.90518 15.8152 9.05832 15.668 9.27898C15.314 9.74898 14.943 10.199 14.509 10.599C14.006 11.063 13.497 11.411 13.001 11.617L12.993 9.71698C12.9643 9.47373 12.8474 9.24946 12.6644 9.0867C12.4813 8.92394 12.2449 8.83402 12 8.83398C11.458 8.86498 11 9.26498 11 9.83398V14.207C9.052 13.667 8 11.777 8 9.83398C8 9.56877 7.89464 9.31441 7.70711 9.12688C7.51957 8.93934 7.26522 8.83398 7 8.83398C6.73478 8.83398 6.48043 8.93934 6.29289 9.12688C6.10536 9.31441 6 9.56877 6 9.83398C6 13.466 8.51 16.334 12 16.334C12.2652 16.334 12.5196 16.2286 12.7071 16.0411C12.8946 15.8536 13 15.5992 13 15.334V13.771C14.332 13.877 15.624 14.818 16.106 15.781C16.1622 15.9026 16.2422 16.0116 16.3413 16.1017C16.4404 16.1918 16.5566 16.261 16.683 16.3053C16.8094 16.3496 16.9433 16.3681 17.077 16.3596C17.2107 16.3512 17.3413 16.3159 17.461 16.2561C17.5808 16.1962 17.6874 16.1128 17.7743 16.011C17.8613 15.9091 17.9269 15.7908 17.9673 15.6632C18.0077 15.5355 18.022 15.401 18.0094 15.2676C17.9968 15.1343 17.9576 15.0049 17.894 14.887C17.416 13.93 16.524 13.035 15.426 12.451C15.574 12.33 15.721 12.202 15.866 12.069C16.4169 11.5665 16.9088 11.0029 17.332 10.389Z" fill="#6E4B84"/>
</g>
<defs>
<clipPath id="clip0_2098_4914">
<rect width="24" height="24" fill="white" transform="translate(0 0.333984)"/>
</clipPath>
</defs>
</svg>
