<svg width="29" height="19" viewBox="0 0 29 19" fill="none" xmlns="http://www.w3.org/2000/svg">
<path d="M27.5899 10.6646H7.13297C6.84741 10.6646 6.57355 10.5593 6.37164 10.3719C6.16972 10.1844 6.05628 9.93023 6.05628 9.66516C6.05628 9.40009 6.16972 9.14588 6.37164 8.95844C6.57355 8.77101 6.84741 8.66571 7.13297 8.66571H27.5899C27.8755 8.66571 28.1494 8.77101 28.3513 8.95844C28.5532 9.14588 28.6666 9.40009 28.6666 9.66516C28.6666 9.93023 28.5532 10.1844 28.3513 10.3719C28.1494 10.5593 27.8755 10.6646 27.5899 10.6646ZM11.1275 18.3704C11.2284 18.2775 11.3085 18.1669 11.3631 18.0451C11.4178 17.9233 11.4459 17.7927 11.4459 17.6608C11.4459 17.5288 11.4178 17.3982 11.3631 17.2764C11.3085 17.1546 11.2284 17.0441 11.1275 16.9512L3.26767 9.66516L11.1275 2.37917C11.2278 2.28598 11.3075 2.17535 11.3618 2.05359C11.4161 1.93184 11.4441 1.80134 11.4441 1.66956C11.4441 1.53777 11.4161 1.40727 11.3618 1.28552C11.3075 1.16376 11.2278 1.05313 11.1275 0.959946C11.0271 0.866759 10.9079 0.792838 10.7767 0.742406C10.6456 0.691973 10.505 0.666016 10.363 0.666016C10.221 0.666016 10.0805 0.691973 9.9493 0.742406C9.81814 0.792838 9.69896 0.866759 9.59857 0.959946L0.985107 8.95555C0.884191 9.04846 0.804092 9.159 0.74943 9.2808C0.694769 9.40259 0.666626 9.53322 0.666626 9.66516C0.666626 9.7971 0.694769 9.92774 0.74943 10.0495C0.804092 10.1713 0.884191 10.2819 0.985107 10.3748L9.59857 18.3704C9.69866 18.4641 9.81774 18.5384 9.94895 18.5892C10.0802 18.6399 10.2209 18.666 10.363 18.666C10.5051 18.666 10.6459 18.6399 10.7771 18.5892C10.9083 18.5384 11.0274 18.4641 11.1275 18.3704Z" fill="black"/>
</svg>
