<svg width="24" height="22" viewBox="0 0 24 22" fill="none" xmlns="http://www.w3.org/2000/svg">
<path d="M23.9889 1.53079C24.0117 1.39338 23.9983 1.25238 23.9499 1.12176C23.9015 0.991134 23.8199 0.875405 23.7131 0.786023C23.6062 0.696641 23.4779 0.636704 23.3408 0.612143C23.2037 0.587582 23.0625 0.599249 22.9313 0.645987L0.531298 8.64599C0.383646 8.69864 0.254717 8.79351 0.160525 8.91881C0.0663328 9.04412 0.0110296 9.19433 0.0014847 9.3508C-0.00806016 9.50727 0.028574 9.66309 0.106837 9.79892C0.185099 9.93474 0.301541 10.0446 0.441698 10.1148L6.8417 13.3148C6.96782 13.3779 7.1084 13.4066 7.24917 13.3979C7.38995 13.3892 7.52592 13.3434 7.6433 13.2652L12.9553 9.72279L9.7761 13.7004C9.70691 13.787 9.65647 13.887 9.62797 13.9941C9.59947 14.1012 9.59352 14.213 9.61052 14.3225C9.62752 14.432 9.66709 14.5368 9.72671 14.6302C9.78634 14.7236 9.86472 14.8037 9.9569 14.8652L19.5569 21.2652C19.6681 21.3391 19.796 21.384 19.9289 21.3958C20.0619 21.4077 20.1957 21.386 20.3182 21.3329C20.4407 21.2798 20.5479 21.1969 20.6301 21.0917C20.7123 20.9865 20.7669 20.8625 20.7889 20.7308L23.9889 1.53079Z" fill="#6E4B84"/>
</svg>
