<svg width="51" height="50" viewBox="0 0 51 50" fill="none" xmlns="http://www.w3.org/2000/svg">
<path d="M42.168 16.6663L25.5013 27.083L8.83464 16.6663V12.4997L25.5013 22.9163L42.168 12.4997M42.168 8.33301H8.83464C6.52214 8.33301 4.66797 10.1872 4.66797 12.4997V37.4997C4.66797 38.6047 5.10696 39.6646 5.88836 40.446C6.66976 41.2274 7.72957 41.6663 8.83464 41.6663H42.168C43.273 41.6663 44.3328 41.2274 45.1142 40.446C45.8956 39.6646 46.3346 38.6047 46.3346 37.4997V12.4997C46.3346 11.3946 45.8956 10.3348 45.1142 9.5534C44.3328 8.77199 43.273 8.33301 42.168 8.33301Z" fill="#4F50C0"/>
</svg>