<svg width="24" height="25" viewBox="0 0 24 25" fill="none" xmlns="http://www.w3.org/2000/svg">
<path fill-rule="evenodd" clip-rule="evenodd" d="M14.3831 15.9461C13.0351 17.0232 11.3258 17.5432 9.60631 17.3994C7.88682 17.2556 6.28765 16.4588 5.13727 15.1728C3.98688 13.8867 3.3726 12.209 3.42058 10.4842C3.46857 8.75932 4.17518 7.11834 5.39529 5.89822C6.61541 4.67811 8.25639 3.9715 9.98122 3.92351C11.7061 3.87553 13.3838 4.48981 14.6699 5.6402C15.9559 6.79058 16.7527 8.38975 16.8965 10.1092C17.0403 11.8287 16.5202 13.538 15.4431 14.8861L20.5991 20.0411C20.6728 20.1097 20.7319 20.1925 20.7729 20.2845C20.8139 20.3765 20.836 20.4758 20.8377 20.5765C20.8395 20.6772 20.821 20.7773 20.7833 20.8707C20.7455 20.9641 20.6894 21.0489 20.6182 21.1201C20.547 21.1913 20.4621 21.2475 20.3687 21.2852C20.2753 21.3229 20.1753 21.3414 20.0746 21.3397C19.9739 21.3379 19.8746 21.3158 19.7826 21.2748C19.6906 21.2339 19.6078 21.1748 19.5391 21.1011L14.3831 15.9461ZM6.45814 14.3841C5.72418 13.65 5.22429 12.7149 5.02165 11.6968C4.81901 10.6788 4.92271 9.6235 5.31965 8.66437C5.71659 7.70523 6.38895 6.88529 7.25175 6.30817C8.11456 5.73105 9.12908 5.42265 10.1671 5.42195C11.2051 5.42125 12.2201 5.72828 13.0837 6.30424C13.9472 6.8802 14.6207 7.69924 15.0189 8.65784C15.4172 9.61644 15.5223 10.6716 15.321 11.6899C15.1197 12.7082 14.6211 13.644 13.8881 14.3791L13.8831 14.3841L13.8781 14.3881C12.8932 15.3707 11.5586 15.9222 10.1673 15.9214C8.77605 15.9207 7.44198 15.3678 6.45814 14.3841Z" fill="#9DB2BF"/>
</svg>
