<svg width="24" height="24" viewBox="0 0 24 24" fill="none" xmlns="http://www.w3.org/2000/svg">
<path d="M23.9889 2.53079C24.0117 2.39338 23.9983 2.25238 23.9499 2.12176C23.9015 1.99113 23.8199 1.8754 23.7131 1.78602C23.6062 1.69664 23.4779 1.6367 23.3408 1.61214C23.2037 1.58758 23.0625 1.59925 22.9313 1.64599L0.531298 9.64599C0.383646 9.69864 0.254717 9.79351 0.160525 9.91881C0.0663328 10.0441 0.0110296 10.1943 0.0014847 10.3508C-0.00806016 10.5073 0.028574 10.6631 0.106837 10.7989C0.185099 10.9347 0.301541 11.0446 0.441698 11.1148L6.8417 14.3148C6.96782 14.3779 7.1084 14.4066 7.24917 14.3979C7.38995 14.3892 7.52592 14.3434 7.6433 14.2652L12.9553 10.7228L9.7761 14.7004C9.70691 14.787 9.65647 14.887 9.62797 14.9941C9.59947 15.1012 9.59352 15.213 9.61052 15.3225C9.62752 15.432 9.66709 15.5368 9.72671 15.6302C9.78634 15.7236 9.86472 15.8037 9.9569 15.8652L19.5569 22.2652C19.6681 22.3391 19.796 22.384 19.9289 22.3958C20.0619 22.4077 20.1957 22.386 20.3182 22.3329C20.4407 22.2798 20.5479 22.1969 20.6301 22.0917C20.7123 21.9865 20.7669 21.8625 20.7889 21.7308L23.9889 2.53079Z" fill="#6E4B84"/>
</svg>
