<svg width="38" height="37" viewBox="0 0 38 37" fill="none" xmlns="http://www.w3.org/2000/svg">
<path d="M19.0001 8.33333C19.9206 8.33333 20.6667 9.07952 20.6667 10V16.6667H27.3334C28.2539 16.6667 29.0001 17.4129 29.0001 18.3333C29.0001 19.2538 28.2539 20 27.3334 20H20.6667V26.6667C20.6667 27.5871 19.9206 28.3333 19.0001 28.3333C18.0796 28.3333 17.3334 27.5871 17.3334 26.6667V20H10.6667C9.74627 20 9.00008 19.2538 9.00008 18.3333C9.00008 17.4129 9.74627 16.6667 10.6667 16.6667H17.3334V10C17.3334 9.07952 18.0796 8.33333 19.0001 8.33333Z" fill="#A0A0A0"/>
<path fill-rule="evenodd" clip-rule="evenodd" d="M0.666748 18.3333C0.666748 8.20811 8.87486 0 19.0001 0C29.1253 0 37.3334 8.20811 37.3334 18.3333C37.3334 28.4586 29.1253 36.6667 19.0001 36.6667C8.87486 36.6667 0.666748 28.4586 0.666748 18.3333ZM19.0001 3.33333C10.7158 3.33333 4.00008 10.0491 4.00008 18.3333C4.00008 26.6176 10.7158 33.3333 19.0001 33.3333C27.2844 33.3333 34.0001 26.6176 34.0001 18.3333C34.0001 10.0491 27.2844 3.33333 19.0001 3.33333Z" fill="#A0A0A0"/>
</svg>
