<svg width="38" height="28" viewBox="0 0 38 28" fill="none" xmlns="http://www.w3.org/2000/svg">
<path d="M31.5898 14.6646H11.1328C10.8473 14.6646 10.5734 14.5593 10.3715 14.3719C10.1696 14.1844 10.0562 13.9302 10.0562 13.6652C10.0562 13.4001 10.1696 13.1459 10.3715 12.9584C10.5734 12.771 10.8473 12.6657 11.1328 12.6657H31.5898C31.8754 12.6657 32.1492 12.771 32.3512 12.9584C32.5531 13.1459 32.6665 13.4001 32.6665 13.6652C32.6665 13.9302 32.5531 14.1844 32.3512 14.3719C32.1492 14.5593 31.8754 14.6646 31.5898 14.6646ZM15.1273 22.3704C15.2283 22.2775 15.3084 22.1669 15.363 22.0451C15.4177 21.9233 15.4458 21.7927 15.4458 21.6608C15.4458 21.5288 15.4177 21.3982 15.363 21.2764C15.3084 21.1546 15.2283 21.0441 15.1273 20.9512L7.26755 13.6652L15.1273 6.37917C15.2277 6.28598 15.3074 6.17535 15.3617 6.05359C15.416 5.93184 15.444 5.80134 15.444 5.66956C15.444 5.53777 15.416 5.40727 15.3617 5.28552C15.3074 5.16376 15.2277 5.05313 15.1273 4.95995C15.0269 4.86676 14.9078 4.79284 14.7766 4.74241C14.6454 4.69197 14.5049 4.66602 14.3629 4.66602C14.2209 4.66602 14.0803 4.69197 13.9492 4.74241C13.818 4.79284 13.6988 4.86676 13.5984 4.95995L4.98498 12.9556C4.88407 13.0485 4.80397 13.159 4.74931 13.2808C4.69465 13.4026 4.6665 13.5332 4.6665 13.6652C4.6665 13.7971 4.69465 13.9277 4.74931 14.0495C4.80397 14.1713 4.88407 14.2819 4.98498 14.3748L13.5984 22.3704C13.6985 22.4641 13.8176 22.5384 13.9488 22.5892C14.08 22.6399 14.2208 22.666 14.3629 22.666C14.505 22.666 14.6458 22.6399 14.777 22.5892C14.9082 22.5384 15.0272 22.4641 15.1273 22.3704Z" fill="black"/>
</svg>
