<svg width="39" height="40" viewBox="0 0 39 40" fill="none" xmlns="http://www.w3.org/2000/svg">
<rect x="1" y="1.33398" width="37" height="36.9978" rx="18.4989" fill="#CCCCCC"/>
<path d="M24.7466 15.6475L25.8088 16.7097M26.3399 12.9919C26.5492 13.2011 26.7152 13.4495 26.8284 13.7229C26.9417 13.9963 27 14.2893 27 14.5852C27 14.8812 26.9417 15.1742 26.8284 15.4476C26.7152 15.721 26.5492 15.9694 26.3399 16.1786L16.2489 26.2696L12 27.3318L13.0622 23.1424L23.1575 12.9962C23.5554 12.5963 24.0891 12.3607 24.6527 12.3361C25.2162 12.3115 25.7684 12.4997 26.1997 12.8634L26.3399 12.9919Z" stroke="#6F00B6" stroke-linecap="round" stroke-linejoin="round"/>
<rect x="1" y="1.33398" width="37" height="36.9978" rx="18.4989" stroke="#6F00B6" stroke-width="2"/>
</svg>
