<svg width="26" height="38" viewBox="0 0 26 38" fill="none" xmlns="http://www.w3.org/2000/svg">
<path d="M13 37.084L12.2 36.184C11.7 35.684 0 21.884 0 13.584C0 6.38398 5.8 0.583984 13 0.583984C20.2 0.583984 26 6.38398 26 13.584C26 21.884 14.3 35.684 13.8 36.284L13 37.084ZM13 2.58398C6.9 2.58398 2 7.48398 2 13.584C2 19.984 10.4 30.784 13 33.984C15.6 30.784 24 19.984 24 13.584C24 7.48398 19.1 2.58398 13 2.58398Z" fill="#232323"/>
<path d="M13 18.584C10.2 18.584 8 16.384 8 13.584C8 10.784 10.2 8.58398 13 8.58398C15.8 8.58398 18 10.784 18 13.584C18 16.384 15.8 18.584 13 18.584ZM13 10.584C11.3 10.584 10 11.884 10 13.584C10 15.284 11.3 16.584 13 16.584C14.7 16.584 16 15.284 16 13.584C16 11.884 14.7 10.584 13 10.584Z" fill="#232323"/>
</svg>
