<svg width="24" height="25" viewBox="0 0 24 25" fill="none" xmlns="http://www.w3.org/2000/svg">
<path fill-rule="evenodd" clip-rule="evenodd" d="M7 4.33398C7 2.67713 8.34315 1.33398 10 1.33398H14C15.6569 1.33398 17 2.67713 17 4.33398V5.33398H21C21.5523 5.33398 22 5.7817 22 6.33398C22 6.88627 21.5523 7.33398 21 7.33398H19.9394L19.1153 20.5211C19.0164 22.1022 17.7053 23.334 16.1211 23.334H7.8789C6.29471 23.334 4.98356 22.1022 4.88474 20.5211L4.06055 7.33398H3C2.44772 7.33398 2 6.88627 2 6.33398C2 5.7817 2.44772 5.33398 3 5.33398H7V4.33398ZM9 5.33398H15V4.33398C15 3.7817 14.5523 3.33398 14 3.33398H10C9.44772 3.33398 9 3.7817 9 4.33398V5.33398ZM6.06445 7.33398L6.88085 20.3964C6.91379 20.9234 7.35084 21.334 7.8789 21.334H16.1211C16.6492 21.334 17.0862 20.9234 17.1191 20.3964L17.9355 7.33398H6.06445Z" fill="#E3E3E3"/>
</svg>
